<svg xmlns="http://www.w3.org/2000/svg" viewBox="0 0 139.74 206.3"><defs><style>.cls-1{fill:#666;}.cls-2{fill:#c7b5a0;}.cls-11,.cls-3{fill:#333;}.cls-4{fill:#9374b5;}.cls-5{fill:#ebd8b6;}.cls-6{fill:#f1eade;}.cls-7{fill:#d3ab9f;}.cls-12,.cls-8{fill:#fff;}.cls-9{fill:#1f1f1f;}.cls-10{fill:#4c4c4c;}.cls-11,.cls-12{fill-opacity:0.24;}</style></defs><title>dogsAsset 3</title><g id="Layer_2" data-name="Layer 2"><g id="Layer_1-2" data-name="Layer 1"><path class="cls-1" d="M106.38,139.3h-.25a1.47,1.47,0,0,0-1.1.65,8,8,0,0,0-1,2,6.82,6.82,0,0,1-1,1.8,1.29,1.29,0,0,0,.15,2,1,1,0,0,0,1.3-.7,12.65,12.65,0,0,1,1-2l1.1-1.8a1.37,1.37,0,0,0-.25-1.85m-3.8-.55a1.66,1.66,0,0,0-.65,1.2,3.21,3.21,0,0,1-.45,1.15.67.67,0,0,0,.3,1.05,1.42,1.42,0,0,0,.55-.1,2.09,2.09,0,0,0,.8-.7,2.75,2.75,0,0,1,.7-.8,1.33,1.33,0,0,0,.55-1.4,1.67,1.67,0,0,0-.6-1.1.52.52,0,0,0-.55.1,4.06,4.06,0,0,1-.65.6m33.3-11c-.77-.07-1,.22-.85.85a10,10,0,0,0,.85,2.25,15,15,0,0,1,.8,2.2,10.43,10.43,0,0,1,.3,2,7.16,7.16,0,0,0,.75-1.6,2.88,2.88,0,0,0,0-1.9c-.24-.63-.45-1.28-.65-2a4.39,4.39,0,0,0-1.15-1.8m-3.5-.5c-.94,0-1.19.42-.75,1.25s1,1.83,1.45,2.7a11.33,11.33,0,0,1,1.15,2.6,5.15,5.15,0,0,0,1.25,2.2,4,4,0,0,0,.25-1.25,7.3,7.3,0,0,0-.4-2.65,10.54,10.54,0,0,0-1.2-2.55,24.44,24.44,0,0,0-1.75-2.3m-16.65,2.1a3.29,3.29,0,0,0-.6-.15,5.92,5.92,0,0,0-1.1-.1,1.23,1.23,0,0,1-.25-.05c-.38,0-.76,0-1.15,0a.54.54,0,0,1-.4-.15c-.34-.2-.65-.4-1-.6q-.51,2.2,2.3,4.15a22.42,22.42,0,0,1,1.9,1.5q0,.3,0,.6a5.07,5.07,0,0,1-1.1,3l-.25-.15a33.53,33.53,0,0,1-3.2,9.15,20.47,20.47,0,0,1-5.7,6.95q2.17,4,4.6,7.85L112,164.8a15,15,0,0,1-1.7,1.1,3.76,3.76,0,0,0,3.45,1.7,5.63,5.63,0,0,0,2.9-1.6,23.93,23.93,0,0,0,6.25-26,27.13,27.13,0,0,0-7.15-10.6m2.75,55.5a1.37,1.37,0,0,0,0,.4,2.47,2.47,0,0,0-.1.35v.4a1.18,1.18,0,0,0,0,.35l.1.4a1.9,1.9,0,0,0,1.65.95.74.74,0,0,0,.25-.05,1.29,1.29,0,0,0,.9-.5,2.11,2.11,0,0,0,.45-.65,3.25,3.25,0,0,0,.15-.4,2.82,2.82,0,0,0-.1-.7,2.34,2.34,0,0,0-.35-.75,1.2,1.2,0,0,0-.45-.35,4.08,4.08,0,0,0-.85-.3v0l-.6.1a.32.32,0,0,0-.25.1l-.15,0-.25.2a3.23,3.23,0,0,0-.4.35m-6,5-.2.75a2.57,2.57,0,0,0,1,2.9,6.22,6.22,0,0,0,.9.55,5.38,5.38,0,0,0,4.4.25,3.81,3.81,0,0,0,2.85-3.8,3.88,3.88,0,0,0-.5-1.9,2.45,2.45,0,0,0-.5-.3l-.1,0a1.93,1.93,0,0,0-.75-.15c-.84-.07-1.67-.1-2.5-.1a11.35,11.35,0,0,0-1.95.55c-.64.23-1.27.48-1.9.75a1,1,0,0,0-.4.2,1.66,1.66,0,0,0-.35.35m-4.35-23.6a3.17,3.17,0,0,1,.85.6,3.34,3.34,0,0,0-.4-1.65.38.38,0,0,1,0,.15,1.6,1.6,0,0,1-.15.35l-.2.4a1.3,1.3,0,0,0-.1.15m8.65,17.2c-.4-.13-.8-.25-1.2-.35a4.58,4.58,0,0,0-.8.35,1.58,1.58,0,0,0-.9,1.4,1,1,0,0,0,.5,1,6.4,6.4,0,0,0,1.2.7,2.14,2.14,0,0,0,.45-.05,4.54,4.54,0,0,0,1.2-.7,1.33,1.33,0,0,0,.45-1.35,1.29,1.29,0,0,0-.9-1.05m-6.2.9v0a3.29,3.29,0,0,1-.6.15,1.42,1.42,0,0,0-.5.2,1.89,1.89,0,0,0-.4.4l-.25.35a2.47,2.47,0,0,0-.1.35.85.85,0,0,0-.1.4,1.18,1.18,0,0,0,0,.35,1.83,1.83,0,0,1,0,.4l.1.35a2.19,2.19,0,0,0,1.75.9,1.87,1.87,0,0,0,1.8-1.4.89.89,0,0,0,.1-.35l-.2-.75a2.51,2.51,0,0,0-.4-.7,1,1,0,0,0-.45-.4l-.85-.3M99.08,166.3v-.05l0-.05a.19.19,0,0,1,0,.1m-8.8-42.65a1,1,0,0,1-.15-.35,1.1,1.1,0,0,0-.3-.35,3,3,0,0,0-.45-.35,3.46,3.46,0,0,0-.75-.3,19.18,19.18,0,0,0-3.75,3.4,21.69,21.69,0,0,0-3,4.9,62.21,62.21,0,0,0-5.2,19.3,57.26,57.26,0,0,0,1.4,19.7q2.49,9.92,10.55,10a11.55,11.55,0,0,0,1.75,0l.1-.4a3,3,0,0,0,.1-.75,3.52,3.52,0,0,0-.1-.75c-.07-.23-.15-.48-.25-.75s-.22-.48-.35-.75l-.1-.35a.46.46,0,0,0-.2-.05,3.69,3.69,0,0,0,0-1c-.3-3.27-.59-6.55-.85-9.85,0-.11,0-.22,0-.35q.84-2.22,1.65-4.5c.41-1.06.81-2.13,1.2-3.2l.85-2.3a21.65,21.65,0,0,1,2.3,3.5c.39.75.81,1.49,1.25,2.2.32.32.64.66,1,1a4.85,4.85,0,0,0,3.1,1.6,14.73,14.73,0,0,0,2.1.05,18.13,18.13,0,0,1,5.05.4,35.91,35.91,0,0,1-4.85-7.75,68.17,68.17,0,0,1-3.45-9.15,40.92,40.92,0,0,0-2.75-7.1l-.25-.15A10.09,10.09,0,0,0,95,136.9a3.94,3.94,0,0,0-.9-.1,2.34,2.34,0,0,0-.95.2,4.79,4.79,0,0,0-.45.25q-.95-2.52-1.7-5.25c.23-.82.43-1.63.6-2.45a.82.82,0,0,0-.2-.35,1.28,1.28,0,0,0-.45-.35,2.7,2.7,0,0,0-.85-.25c-.23-1-.45-2.14-.65-3.25l.8-1.7M4.88,186.3c-.17-.13-.34-.25-.5-.35L4,185.8l-.35-.15a4.58,4.58,0,0,0-.8.35,2.09,2.09,0,0,0-.7.75,1.11,1.11,0,0,0-.2.65,1.37,1.37,0,0,0,.05.4,1.23,1.23,0,0,1,0,.35,2.93,2.93,0,0,0,.8.65,1.38,1.38,0,0,0,.8.25,1.41,1.41,0,0,0,1.2-.55,3.77,3.77,0,0,0,.5-.75,1.25,1.25,0,0,0,0-.7,1.25,1.25,0,0,0-.2-.4,1.48,1.48,0,0,0-.25-.35m4.5,4.7c-.5-.2-1-.38-1.45-.55a3.06,3.06,0,0,0-1.8-.15,1.81,1.81,0,0,0-.9.45,1.26,1.26,0,0,0-.2.2,1.71,1.71,0,0,0-.3.5,2.64,2.64,0,0,0-.2.7v1.5a2.19,2.19,0,0,0,.8.6,6.81,6.81,0,0,0,4.9.65,1.23,1.23,0,0,0,.7-.4,1.77,1.77,0,0,0,.3-.45,1.57,1.57,0,0,0,0-1.15,1.18,1.18,0,0,0-.45-1.05A4.94,4.94,0,0,0,9.38,191m-1.3-15.2a2.47,2.47,0,0,0-.1.35,1.37,1.37,0,0,0-.05.4.75.75,0,0,0,.1.35l.1.4a1.93,1.93,0,0,0,.15.35l.3.25a18,18,0,0,0,2.25-3.85c-.82.3-1.63.63-2.45,1a2.46,2.46,0,0,0-.3.75m2.3,12a1.18,1.18,0,0,0-.2.7.75.75,0,0,0,.1.35,2.19,2.19,0,0,0,.25.4,3.66,3.66,0,0,0,1.15.4,1,1,0,0,0,1.15-.7,1.16,1.16,0,0,0-.2-1.35,4.51,4.51,0,0,0-1-.75v.1a5.83,5.83,0,0,0-.7.25,1.29,1.29,0,0,0-.55.6m-2.75-2.7a1.45,1.45,0,0,0-.55.2,1.84,1.84,0,0,0-.7.65,1.66,1.66,0,0,0-.35.65.85.85,0,0,0-.1.4.75.75,0,0,0,.1.35,1,1,0,0,0,.15.35,4.49,4.49,0,0,0,.75.7,1.08,1.08,0,0,0,1.55-.1,3.13,3.13,0,0,0,.6-.7,2.3,2.3,0,0,1,.2-.35,3,3,0,0,0-.1-.75,1.83,1.83,0,0,0-.8-1.1l-.75-.3m21.3-57a1,1,0,0,0-.15.35c.17.9.33,1.82.5,2.75l-.35.2a.58.58,0,0,0-.35.35.79.79,0,0,0,0,.3,42.33,42.33,0,0,0,.4,5.1,5.62,5.62,0,0,1-.15.8q-2.3.93-2.25,3.85a45.16,45.16,0,0,1-1.25,10.55,112.52,112.52,0,0,0-2.15,11.15,14.37,14.37,0,0,0,.15,5.2,2.61,2.61,0,0,0-.55-.55l-.15-.1a8.44,8.44,0,0,0,.3-1.25c-.14-.23-.29-.47-.45-.7a.8.8,0,0,0-.45-.35,3.46,3.46,0,0,0-.75-.3,3.29,3.29,0,0,0-.6-.15,2.24,2.24,0,0,0-1.25.45,5.72,5.72,0,0,1,.6.25,1.09,1.09,0,0,1,.5.35c.13.1.26.22.4.35a13,13,0,0,1,.55,3.75,23.17,23.17,0,0,1-.35,4.5.31.31,0,0,1,0,.1l.1-.05a3.31,3.31,0,0,0,1.15.35,5.35,5.35,0,0,0,.55.05,5.43,5.43,0,0,1,0,.9c-.13.83-.25,1.64-.35,2.45-.26.28-.52.55-.8.8a2.27,2.27,0,0,0,3.1,1.25h.05s0,0-.05,0a17.89,17.89,0,0,1-4.25,2.65q-.3.17-.6.3a5.68,5.68,0,0,0,.85.85,4.71,4.71,0,0,0,1.2.75q.62-.33,1.2-.6l.85.3a1.14,1.14,0,0,1,.4.3,5.61,5.61,0,0,0,1.2-.6,9.63,9.63,0,0,0,1.7-1.35,23.61,23.61,0,0,0,7.3-17.25q.15-10.05.35-20.25.24-10.62-4.55-18.25l-.25-.4v.1l-.5.1a.69.69,0,0,0-.35.2,3.13,3.13,0,0,0-.35.4m-19-40.9a5.19,5.19,0,0,0,.2,2,4.57,4.57,0,0,0,.45,1.2,22.79,22.79,0,0,0-.65-3.25m1,3.2c0,.16,0,.31,0,.45a1.2,1.2,0,0,0,.65.4q.84.15,2.1-1,3.9-3.8-1.15-5.9l-.3.1a26.69,26.69,0,0,0-1.25,6m92.65-25.45c.36,0,.71,0,1,0-.11-.27-.21-.55-.3-.85a8.07,8.07,0,0,1-.75.8M92.38,84.9A6,6,0,0,0,90,86.2a13.09,13.09,0,0,0-1.15,1.2,3.23,3.23,0,0,0,0,2.25,5.61,5.61,0,0,1,.35,2.25,2.4,2.4,0,0,0,.4,1.5,2.82,2.82,0,0,0,2.85.9,4.3,4.3,0,0,0,3.75-4.1A5,5,0,0,0,93,84.75a3.29,3.29,0,0,1-.6.15m-.7-78.1C90.81,6,90,5.22,89.13,4.35a24.34,24.34,0,0,0-8,9.6Q77.28,21.64,74,29.55a13.89,13.89,0,0,1-4.75,6.2,11.34,11.34,0,0,1-.25-4.4,12,12,0,0,1-2.1-.2,15.16,15.16,0,0,1-6.1-2.9c-1.37-1.1-2.3-1.48-2.8-1.15.13.27.26.52.4.75a5.83,5.83,0,0,0,.65.75,4.2,4.2,0,0,1,.9,1.2,2.19,2.19,0,0,1,.25.7,6.9,6.9,0,0,1,0,.75A20.13,20.13,0,0,1,50,33.2q-3-.15-.75,1.8A1.37,1.37,0,0,1,48,36.8a16,16,0,0,0-4.35,1.4l-.65.3.05,0a9.79,9.79,0,0,0-1.5,1l-.8.7c-.1.13-.14.23-.1.3a2,2,0,0,0,.45.5,1.93,1.93,0,0,1,.35.35,5.07,5.07,0,0,1,.25.75,1.23,1.23,0,0,1,0,.35,3.51,3.51,0,0,1-.35.7,2.24,2.24,0,0,1-1.4.9,2.89,2.89,0,0,1-2.65-.7,2.28,2.28,0,0,1-.45-1.55,2.91,2.91,0,0,1,.55-1.6c.2-.33.41-.67.65-1a7.1,7.1,0,0,1,1.7-1.8,3.24,3.24,0,0,1,.7-.45,4.76,4.76,0,0,0-.55-.55c-.24-.13-.45-.27-.65-.4a1.35,1.35,0,0,1-.7-1q.69-2.51,3.8-3.25l.95-.2a13.83,13.83,0,0,1-2.2-4.15,94.57,94.57,0,0,0-5.05-11.65q-1.76-3.4-3.5-6.75c-.07-.13-.15-.2-.25-.2a7.83,7.83,0,0,0-1.75-.2,40.48,40.48,0,0,0-9.8,17.15,72.19,72.19,0,0,0-2.6,21.15A20.63,20.63,0,0,1,16.53,56h0a1.49,1.49,0,0,1,.4-.15,31.71,31.71,0,0,0,6.8-3.5,6.6,6.6,0,0,1,7.3-.3,29.77,29.77,0,0,1,.75,9c-.07,1-.15,2-.25,3q2.46,5.37-2.1,13.1a8.06,8.06,0,0,1-2.7,2.8,28.39,28.39,0,0,1-7.15,9,17.08,17.08,0,0,0-4.8,5.8,6.17,6.17,0,0,0,1,6.85,1.63,1.63,0,0,1,.4.15c.22.33.46.65.7.95a12.64,12.64,0,0,0,1.4,1.15,1.1,1.1,0,0,0,.3-.35,10,10,0,0,0,.75,1,7.37,7.37,0,0,1,.85,1.45.65.65,0,0,1-.1.15,29.06,29.06,0,0,0,3.95,2.8,71.87,71.87,0,0,1,7.65,5.2,12,12,0,0,1-1.2,2.6,3.88,3.88,0,0,0-.5,2.85,2.76,2.76,0,0,0,.65,1.35,5.72,5.72,0,0,1,.8.5,3.28,3.28,0,0,0,.65.2,2.71,2.71,0,0,0,1.55-1.1,2.83,2.83,0,0,0,.45-2.55,6,6,0,0,1-.15-2.45,21.49,21.49,0,0,1,1.65-2.55,13.28,13.28,0,0,1,3-3,2.34,2.34,0,0,1,.9-1c.8-.57,1.56-1.15,2.3-1.75a3,3,0,0,1,.6-.4l-.2-.1a12.42,12.42,0,0,1-7,2.4l-.95,0a13.11,13.11,0,0,1-5.45-1.7,5.84,5.84,0,0,1-3.15-3.55,5.46,5.46,0,0,1,.4-3.5q5.85,9.45,18.8,4.85a5,5,0,0,1,3.35.05q13.1,4.25,20.75-4.1a12.92,12.92,0,0,0,3.3-7.9,18.91,18.91,0,0,0,0-3.45l0-.35a10.37,10.37,0,0,0-.15-1.1h0c0-.11,0-.23,0-.35a3.54,3.54,0,0,1,2.6-1.45A30.62,30.62,0,0,0,78,85.9a4.19,4.19,0,0,1,1,.1,3.48,3.48,0,0,1,1.1.6,6.22,6.22,0,0,1,.45.65,1.17,1.17,0,0,1-.7,1.35c-.44.2-.85.4-1.25.6a9.14,9.14,0,0,1-.1,3.1,16.53,16.53,0,0,1-.85,2.9,76.85,76.85,0,0,1-8.65,16.5l-.45.6a17.47,17.47,0,0,1-3.55,3.8l-.5.35c-.26.2-.53.38-.8.55a.53.53,0,0,1-.15,0l-.1,0-.7.45a5.39,5.39,0,0,0-1.8.65h-.05c-.08.91-.22,1.84-.4,2.8,0,.16-.07.33-.1.5a13.67,13.67,0,0,1,4.45-1.7q2.94-.64,5.9-1.2l1-.2c0-.1.07-.2.1-.3q17.4-8.14,12-28.1-1.65-6-7.7-5.6c-.57,0-1.1,0-1.6,0q-2.5-2.85-5.3-5.6a5.86,5.86,0,0,1-1.75-3c-.1-.57-.19-1.13-.25-1.7q-7.66-7.6.25-19.5a19.68,19.68,0,0,1,2.9-3.4,28.74,28.74,0,0,1,2.2-2.9,16,16,0,0,1,12.9-6A28,28,0,0,0,91,49.4,18.11,18.11,0,0,1,96,57a9.72,9.72,0,0,0,4.45,5.55q.09.41.15.75a2.05,2.05,0,0,0,.2.7.81.81,0,0,0,.3.4l.5.4.7.15a35.1,35.1,0,0,1,0-15.4,85.21,85.21,0,0,0,1.55-14q.45-17.3-12.15-28.7M93.33,15a18.25,18.25,0,0,1,4.2,6.35,64.26,64.26,0,0,1,3,10.35,3.75,3.75,0,0,1-1.1,3.45,4.22,4.22,0,0,1-.65-.3q.27,3.52.3,7.1a1.23,1.23,0,0,1,1.1-.3,7,7,0,0,1,1.4,5.25,31.66,31.66,0,0,1-1.15,5.25A1.81,1.81,0,0,1,99,53.5c-1.7-1.18-2.24-2.89-1.6-5.15a47.66,47.66,0,0,1-7.2-4.9,19,19,0,0,1-4.25-4.9,4.23,4.23,0,0,1-2.15-.5,6.3,6.3,0,0,1-.8-.45v0a7.87,7.87,0,0,1-1.2-.85l-1-.9a2.61,2.61,0,0,1,0-1.15,5.44,5.44,0,0,0,0-1.4,5.27,5.27,0,0,1-.05-2l.1-.4A1.23,1.23,0,0,1,82,30.25q3.34.15.5-1.5c.93-2.23,2-4.52,3.25-6.85A64.51,64.51,0,0,0,89,15.1a3.3,3.3,0,0,1,2-2A19.34,19.34,0,0,1,93.33,15M32,15.25c.46,2,.85,4,1.15,6a33.07,33.07,0,0,1,.3,6.75,3.51,3.51,0,0,1-1.6,2.65q-1.86.9,1.65.7a1.23,1.23,0,0,1,1.25.8,1.44,1.44,0,0,1-.3,1.35c-.6.8-1.19,1.58-1.75,2.35a7,7,0,0,1-.6.8,5.07,5.07,0,0,1,.25.75,1.6,1.6,0,0,1,.15.35c0,.27.06.52.1.75v.4a4.24,4.24,0,0,1-1.5,1.65,2.76,2.76,0,0,1-1.4.45l-.1.25A38.18,38.18,0,0,0,25.38,45a10.17,10.17,0,0,1-3.7,2.4.53.53,0,0,0-.05.15v.05l-.15,1.15a1.16,1.16,0,0,1-1.4,1.15A10,10,0,0,1,19,44.25q.24-3,.45-6c.06-.8.46-1.17,1.2-1.1.13-1,.31-2,.55-3q1.2-5.1,2.7-10c.15-.51.32-1,.5-1.5a12.36,12.36,0,0,1,.55-1.9,14.65,14.65,0,0,1,3.9-5.6A2.29,2.29,0,0,1,30,14.5a2.92,2.92,0,0,1,.5.05,1.31,1.31,0,0,1,.5.1,2.28,2.28,0,0,1,.45.2l.15.05c.13.1.26.22.4.35M35,83.8c.93-.27,1.75-.53,2.45-.8q15.15-2.9,17.6,9a3.48,3.48,0,0,1-1.4,3.5q-12.55,10.4-22.85-1.3Q24.17,86.66,35,83.8M29,111.15v0a.16.16,0,0,0-.1,0H29M30.53,26.1a12.58,12.58,0,0,1-1,2.1l.4-.25a1.53,1.53,0,0,0,.4-.35,12.85,12.85,0,0,0,.2-1.5M86.13,28a.65.65,0,0,1,.05-.25,1.49,1.49,0,0,1,.15-.45l-.25.1-.35.2.4.4m5.25-10.15a6.32,6.32,0,0,1,1,.6l-.6-1.2A4.66,4.66,0,0,0,91.38,17.85Z"/><path class="cls-2" d="M13,100.6c-.17-.29-.34-.59-.5-.9a16.15,16.15,0,0,0,1.2,2,.76.76,0,0,1,.1.15l-.85-1.8a.38.38,0,0,0,0,.15,1.18,1.18,0,0,0,.05.35M8.83,84.45v0c.2.4.4.83.6,1.3Q9.16,85.11,8.83,84.45Z"/><path class="cls-3" d="M88,0a12.25,12.25,0,0,0-7.55,6.4q-4.56,8.75-9.05,17.5a23.66,23.66,0,0,0-1.65,3.9,25.27,25.27,0,0,1-8.85-2.9A44,44,0,0,0,53,21.5a2.21,2.21,0,0,0-.5.15,1.16,1.16,0,0,0-.7,1.65A10,10,0,0,0,53,25.35c.36.5.75,1,1.15,1.55A21.39,21.39,0,0,0,56,29a22.49,22.49,0,0,1-5,1.15c-1,.13-2.07.3-3.1.5a9,9,0,0,0-1.05-4.2q-3.3-6.56-6.3-13.25a36.22,36.22,0,0,0-6.05-9.35,9,9,0,0,0-1-.15c-1.17-.07-2.34-.1-3.5-.1A27.06,27.06,0,0,0,19.73,15.65a94.12,94.12,0,0,0-7,23.65,38.94,38.94,0,0,0,1.1,18.4,16,16,0,0,0-3,2.3,11.08,11.08,0,0,0-3.75,8.65q.15,6.9,3.6,10.1A4.15,4.15,0,0,0,9.23,81.2q-.36,1.39-.6,2.85c.06.13.13.28.2.45v0q.33.66.6,1.35c-.14,2.17-.37,4.28-.7,6.35a14.05,14.05,0,0,0,.6,7.1,1.59,1.59,0,0,0,1.65.6,1.73,1.73,0,0,0,1.2-.8.88.88,0,0,1,.05.15l.25.5c.16.31.33.61.5.9a1.18,1.18,0,0,1-.05-.35.38.38,0,0,1,0-.15l.85,1.8c.26.57.51,1.13.75,1.7a7,7,0,0,0,2.2,3c.43.77.85,1.57,1.25,2.4.6.47,1.23.92,1.9,1.35q4.55,3,8.45,6.05c-.07,1.63-.22,3.27-.45,4.9A63.69,63.69,0,0,1,25,133a19,19,0,0,0-1.1,7,56.39,56.39,0,0,0-2.1,9.1q-.75,5.35-1.3,10.75l-.15.05a4.66,4.66,0,0,1-.5.25,1.31,1.31,0,0,0-.3.4,71.35,71.35,0,0,1-7.25,9.3A151.63,151.63,0,0,0,1.83,182.7q-3.81,5.2.3,9.65,9,9.59,18.6,6.45a29.74,29.74,0,0,1,3.4.25,20.84,20.84,0,0,0,2.5.15c.4,0,.8,0,1.2,0a17.51,17.51,0,0,0,13.3,5.9,6.08,6.08,0,0,0,1.45-1.6q1.17-1.92,2.25-3.95a57.63,57.63,0,0,1,21.1.65,6.87,6.87,0,0,0,2.6.15,7.61,7.61,0,0,0,.85.25,12,12,0,0,0,2.25.3,18.93,18.93,0,0,0,14.15,5.2,3,3,0,0,0,1.35.25,1.8,1.8,0,0,0,.25-.4,23.92,23.92,0,0,0,4.15-.85,35.8,35.8,0,0,0,1-4q2-.3,4-.75l.15-.05a5.26,5.26,0,0,0,.6.15Q116,204.15,125.63,189a3.09,3.09,0,0,0,0-3.75q-3.66-5.22-7.25-10.6,4.8-.28,10-4.05a50.14,50.14,0,0,1,6.85-4.2q4.8-2.44,4.55-7a2.72,2.72,0,0,0-.8-.55,5.31,5.31,0,0,0-3.3-.35l-1.65.3a17.12,17.12,0,0,0,1.6-6,40,40,0,0,0-1.5-14.35,33.41,33.41,0,0,0-6.8-12.45,34.68,34.68,0,0,0-11.15-8.7v0l-.95.3a1.31,1.31,0,0,0-.5.3,3.63,3.63,0,0,0-.3.35l-.2.4a2.47,2.47,0,0,0-.1.35,1.23,1.23,0,0,1,0,.35v1.15a1.23,1.23,0,0,1,0,.35l-.1.25-.4-.1a9.21,9.21,0,0,0-5.45,0,2.08,2.08,0,0,0-1,.7,2.27,2.27,0,0,0-.4,1.5,8.13,8.13,0,0,0,1.65,4.85,18.44,18.44,0,0,1,2.1,3.45c.12.27.24.53.35.8q-.36,2.7-.75,5.4a20.61,20.61,0,0,1-3.2,8.35c-.61.91-1.24,1.77-1.9,2.6l-.35.2a3.42,3.42,0,0,1-1.5.5q-3.3-6.4-6-12.95-.69-3.78-1.4-7.55a12.55,12.55,0,0,0,7.5-1.25,1.61,1.61,0,0,0,.45-.3l.1-.35a2.87,2.87,0,0,0,.25-1.15c0-.37,0-.73,0-1.1a3,3,0,0,0-.1-.75c0-.13-.07-.25-.1-.35a2.92,2.92,0,0,0-.25-.4c-.54-.3-1.07-.58-1.6-.85a9.6,9.6,0,0,1-2.15-1.7,9.86,9.86,0,0,0-2.1-1.7l.25-.15.9-.6a13.35,13.35,0,0,0,2.8-2.3c.83-.9,1.66-1.78,2.5-2.65a2.62,2.62,0,0,0,.65-2.7,2.47,2.47,0,0,1-.1-.35,1.48,1.48,0,0,0-1.4-.9c-1.5-.07-3-.1-4.5-.1l-.25,0q.08-.13.15-.3c.19-.27.37-.55.55-.85l.2-.25.4-.5A97.68,97.68,0,0,0,109,100a2.73,2.73,0,0,0,2-2.15,34.72,34.72,0,0,0,.7-9.1c-.07-1.23-.15-2.43-.25-3.6.08-.37.17-.73.25-1.1l.15-.75a1.8,1.8,0,0,0,.1-.4c.16-.67.31-1.34.45-2-.2-1.4-.4-2.78-.6-4.15a74.29,74.29,0,0,0-4.3-16.35v.05a12,12,0,0,0-.5-1.6,15,15,0,0,0,.3-1.6,98.54,98.54,0,0,0-.45-32.6Q103.73,7.2,88,0m1.15,4.35C90,5.22,90.81,6,91.68,6.8q12.6,11.4,12.15,28.7a85.21,85.21,0,0,1-1.55,14,35.1,35.1,0,0,0,0,15.4l.3,1a11.06,11.06,0,0,0,1-.85,8.07,8.07,0,0,0,.75-.8c.09.3.19.58.3.85a5.72,5.72,0,0,0,1.45,2q.49,6.35,1.6,12.6a82.45,82.45,0,0,1,1,8.55c-.12,1.26-.2,2.53-.25,3.8v.4c0,.53-.4.67-1.1.4a2.57,2.57,0,0,0-1.15,0,15.08,15.08,0,0,1-3.75,6.9A44.58,44.58,0,0,1,89.38,109a8.6,8.6,0,0,0,2.35.8,12.53,12.53,0,0,0-2.55,5.1,11.63,11.63,0,0,0-1.55-.1,82.9,82.9,0,0,0-12.45,2.7c-1.15.34-2.31.64-3.5.9l-1,.2q-3,.56-5.9,1.2a13.67,13.67,0,0,0-4.45,1.7c0-.17.07-.34.1-.5.18-1,.32-1.89.4-2.8h.05V118a9.94,9.94,0,0,0,1.5-.45,6,6,0,0,0,1-.45l.1,0a.53.53,0,0,0,.15,0c.27-.17.54-.35.8-.55l.5-.35a17.47,17.47,0,0,0,3.55-3.8l.45-.6a76.85,76.85,0,0,0,8.65-16.5,16.53,16.53,0,0,0,.85-2.9,9.14,9.14,0,0,0,.1-3.1c.4-.2.81-.4,1.25-.6a1.17,1.17,0,0,0,.7-1.35A6.22,6.22,0,0,0,80,86.6a3.48,3.48,0,0,0-1.1-.6,4.19,4.19,0,0,0-1-.1,30.62,30.62,0,0,1-3.4.55A3.54,3.54,0,0,0,72,87.9c0,.12,0,.24,0,.35h0a10.37,10.37,0,0,1,.15,1.1l0,.35a18.91,18.91,0,0,1,0,3.45,12.92,12.92,0,0,1-3.3,7.9q-7.65,8.36-20.75,4.1a5,5,0,0,0-3.35-.05q-13,4.61-18.8-4.85a5.46,5.46,0,0,0-.4,3.5,5.84,5.84,0,0,0,3.15,3.55,13.11,13.11,0,0,0,5.45,1.7l.95,0a12.42,12.42,0,0,0,7-2.4l.2.1a3,3,0,0,0-.6.4c-.74.6-1.5,1.18-2.3,1.75a2.34,2.34,0,0,0-.9,1,13.28,13.28,0,0,0-3,3A21.49,21.49,0,0,0,34,115.45a6,6,0,0,0,.15,2.45,2.83,2.83,0,0,1-.45,2.55,2.71,2.71,0,0,1-1.55,1.1,3.28,3.28,0,0,1-.65-.2l.2.15a9.19,9.19,0,0,1,.75.65,2.11,2.11,0,0,1,.65,1.1,1.44,1.44,0,0,1-.2,1.15.54.54,0,0,1-.2.3,1.67,1.67,0,0,1-1.05.4,4.44,4.44,0,0,1-1.85-.4,1.55,1.55,0,0,1-.4-.3c-.07-.23-.14-.48-.2-.75a2.57,2.57,0,0,1-.1-.75,4.16,4.16,0,0,1,.15-1.1,1.29,1.29,0,0,1,1.4-1v0a.12.12,0,0,1,.05,0A2.76,2.76,0,0,1,30,119.5a3.88,3.88,0,0,1,.5-2.85,12,12,0,0,0,1.2-2.6,71.87,71.87,0,0,0-7.65-5.2,29.06,29.06,0,0,1-3.95-2.8.65.65,0,0,0,.1-.15,7.37,7.37,0,0,0-.85-1.45,10,10,0,0,1-.75-1,1.1,1.1,0,0,1-.3.35,12.64,12.64,0,0,1-1.4-1.15c-.24-.3-.48-.62-.7-.95a1.63,1.63,0,0,0-.4-.15,6.17,6.17,0,0,1-1-6.85,5.15,5.15,0,0,0-3.25-2.15c-.14-.13-.15-.52-.05-1.15a1.2,1.2,0,0,1-.65-.4c0-.14,0-.29,0-.45a26.69,26.69,0,0,1,1.25-6,1.4,1.4,0,0,0,.15-.3,6.83,6.83,0,0,0,.3-4.1Q16.47,82.16,23,81.2a9.11,9.11,0,0,0,3.8-1.35,8.06,8.06,0,0,0,2.7-2.8Q34,69.33,31.58,64T19.48,55.5c-.78.17-1.55.37-2.3.6a2.08,2.08,0,0,1-.4.15l-.45.2c0-.1.07-.2.1-.3a1.3,1.3,0,0,0,.15-.2h0a20.63,20.63,0,0,0,1.65-9.05,72.19,72.19,0,0,1,2.6-21.15A40.48,40.48,0,0,1,30.58,8.6a7.83,7.83,0,0,1,1.75.2c.1,0,.18.07.25.2q1.74,3.35,3.5,6.75A94.57,94.57,0,0,1,41.13,27.4a13.83,13.83,0,0,0,2.2,4.15l-.95.2q-3.1.75-3.8,3.25a1.35,1.35,0,0,0,.7,1c.2.13.41.27.65.4a4.76,4.76,0,0,1,.55.55,3.24,3.24,0,0,0-.7.45,7.1,7.1,0,0,0-1.7,1.8c-.24.33-.45.67-.65,1a2.91,2.91,0,0,0-.55,1.6,2.28,2.28,0,0,0,.45,1.55,2.89,2.89,0,0,0,2.65.7,2.24,2.24,0,0,0,1.4-.9,3.51,3.51,0,0,0,.35-.7,1.23,1.23,0,0,0,0-.35,5.07,5.07,0,0,0-.25-.75,1.93,1.93,0,0,0-.35-.35,2,2,0,0,1-.45-.5c0-.07,0-.17.1-.3l.8-.7a9.79,9.79,0,0,1,1.5-1l-.05,0,.65-.3A16,16,0,0,1,48,36.8,1.37,1.37,0,0,0,49.23,35Q47,33.05,50,33.2a20.13,20.13,0,0,0,10.25-2,6.9,6.9,0,0,0,0-.75,2.19,2.19,0,0,0-.25-.7,4.2,4.2,0,0,0-.9-1.2,5.83,5.83,0,0,1-.65-.75c-.14-.23-.27-.48-.4-.75.5-.33,1.43,0,2.8,1.15a15.16,15.16,0,0,0,6.1,2.9,12,12,0,0,0,2.1.2,11.34,11.34,0,0,0,.25,4.4A13.89,13.89,0,0,0,74,29.55q3.3-7.9,7.15-15.6a24.34,24.34,0,0,1,8-9.6M16,60.5a1.66,1.66,0,0,0,.35.35,2,2,0,0,0,.6.2,2.92,2.92,0,0,0,.5,0,5.09,5.09,0,0,0,.6-.25l.65-.35c.23-.13.48-.27.75-.4a7.5,7.5,0,0,1,5.05,2.1,16.88,16.88,0,0,1,1.35,1.3q5,5.21,2.45,9.45a7.5,7.5,0,0,1-1.15,1.5l-1.35,1.2a17.43,17.43,0,0,1-1.95,1.35,6.86,6.86,0,0,1-7.1.15q-13.26-6.94-1.45-16.9a1,1,0,0,1,.45.1.47.47,0,0,1,.25.25m-5.9,28.85a5.19,5.19,0,0,1-.2-2,22.79,22.79,0,0,1,.65,3.25,4.57,4.57,0,0,1-.45-1.2m53.6,18.8,0-.05A1.05,1.05,0,0,1,64,108a1.82,1.82,0,0,1-.25.2m-5.4,1.4q-2.05,6.86-4.4,13.55a18.4,18.4,0,0,1-1.85,4,7.2,7.2,0,0,1-3,1.5,41.17,41.17,0,0,1-9.25,1.25,28.42,28.42,0,0,1-4.1-2.4,1.76,1.76,0,0,0,.2-.75,18.75,18.75,0,0,1,2.85-9.5,54.11,54.11,0,0,1,7.15-9.2,1.8,1.8,0,0,1,.4.15,9.31,9.31,0,0,0-1.15,1.55,23.27,23.27,0,0,0-2.9,8.4,11.92,11.92,0,0,0,.95,6.7,5.37,5.37,0,0,0,1.5-3.5,16,16,0,0,1,2.75-7.45,26.34,26.34,0,0,0,2.6-4.65,24.92,24.92,0,0,0,8.25.4M32.73,127.8A8.85,8.85,0,0,0,34,129.5q.3.31.6.6A15.36,15.36,0,0,0,39,132.7l0,0a17.54,17.54,0,0,0,1.65.65,4.17,4.17,0,0,0,1.35,1.75c.76.63,1.56,1.27,2.4,1.9q1.85,1.4,3.75,2.75c.79.56,1.56,1.14,2.3,1.75a1.21,1.21,0,0,0,.4,1,27.09,27.09,0,0,0,2.4,2.15l.75.6a18.94,18.94,0,0,0,3,1.75,6.94,6.94,0,0,0,.8.35,5,5,0,0,0,1.1.25h1.55a4.86,4.86,0,0,0,.55-.1l.3-.5a23.3,23.3,0,0,1,3.15-3.8l.6-.6q4-3.9,8.1-7.9a52.93,52.93,0,0,1,8.95-7.1c.94-.59,1.86-1.19,2.75-1.8a19.18,19.18,0,0,1,3.75-3.4,3.46,3.46,0,0,1,.75.3,3,3,0,0,1,.45.35,1.1,1.1,0,0,1,.3.35,1,1,0,0,0,.15.35l-.8,1.7c.2,1.11.42,2.2.65,3.25a2.7,2.7,0,0,1,.85.25,1.28,1.28,0,0,1,.45.35.82.82,0,0,1,.2.35c-.17.82-.37,1.63-.6,2.45q.75,2.73,1.7,5.25a4.79,4.79,0,0,1,.45-.25,2.34,2.34,0,0,1,.95-.2,3.94,3.94,0,0,1,.9.1,10.09,10.09,0,0,1,.85,2.25l.25.15a40.92,40.92,0,0,1,2.75,7.1,68.17,68.17,0,0,0,3.45,9.15,35.91,35.91,0,0,0,4.85,7.75h0a1.78,1.78,0,0,1,1.4,1.35,1.83,1.83,0,0,1,.05.4.49.49,0,0,1-.05.2,3.34,3.34,0,0,1,.4,1.65l.3.3c.8.83,1.56,1.68,2.3,2.55a16.57,16.57,0,0,1,2.6,4.05,7.17,7.17,0,0,1,.4,4.85,1.75,1.75,0,0,1,.2.35q1.42,1.74,2.9,3.45a15,15,0,0,1,1.4,1.9l.15,0a.32.32,0,0,1,.25-.1l.6-.1v0a4.08,4.08,0,0,1,.85.3,1.2,1.2,0,0,1,.45.35,2.34,2.34,0,0,1,.35.75,2.82,2.82,0,0,1,.1.7,3.25,3.25,0,0,1-.15.4,2.11,2.11,0,0,1-.45.65,1.29,1.29,0,0,1-.9.5q0,.31,0,.6l.1,0a2.45,2.45,0,0,1,.5.3,3.88,3.88,0,0,1,.5,1.9,3.81,3.81,0,0,1-2.85,3.8,5.38,5.38,0,0,1-4.4-.25,23.7,23.7,0,0,1-2.7.9,18.72,18.72,0,0,1-8.7.35l-2-.4c0,.12,0,.23,0,.35a2.22,2.22,0,0,1-.8,2.25,2.3,2.3,0,0,1-2.85-1.4,2,2,0,0,1-.3.65l-.65.3a1.69,1.69,0,0,1-2-.5c-.34-.37-.7-.73-1.1-1.1a3.63,3.63,0,0,1-.3-.35,10.8,10.8,0,0,1-.1-1.5,12.85,12.85,0,0,0-.2-1.5,3.65,3.65,0,0,1,.1-1.9,1.69,1.69,0,0,1,.3-.6l-.85-1a1.52,1.52,0,0,1-.35-1.6,1,1,0,0,1,.15-.35,1.25,1.25,0,0,1,.35-.4,1.3,1.3,0,0,1,.35-.25.82.82,0,0,1,.4-.1l.55-.15c0-.46,0-.93,0-1.4A79,79,0,0,0,92.13,171q-1.12-5.58-1.75-10.9-.81,2.28-1.65,4.5c0,.13,0,.24,0,.35.26,3.3.55,6.58.85,9.85a3.69,3.69,0,0,1,0,1,.46.46,0,0,1,.2.05l.1.35c.13.27.25.52.35.75s.18.52.25.75a3.52,3.52,0,0,1,.1.75,3,3,0,0,1-.1.75l-.1.4a11.55,11.55,0,0,1-1.75,0c.22,2.63.35,5.27.4,7.9a21.43,21.43,0,0,1,.25,4.15,49.74,49.74,0,0,1-.4,5.3,1.7,1.7,0,0,1-.45,1.05c-.22,1.21-.48,2.39-.8,3.55l-.5,0a19.78,19.78,0,0,1-.15-2.45,3.17,3.17,0,0,0-1.1-2.6c-.54-.13-.87,0-1,.5a13.8,13.8,0,0,0-.6,3.35c0,.41,0,.81,0,1.2a15.29,15.29,0,0,1-2.9-.55,1,1,0,0,0,0-.25,15.25,15.25,0,0,1,0-2.25,1.6,1.6,0,0,0-1.15-1.75c-.57.07-.89.45-.95,1.15s-.17,1.43-.3,2.15a18,18,0,0,1-3.55-2.35,22.06,22.06,0,0,1-6.65-9.35l-.15-.6q-1.31-4.5-2.85-9.1a22.42,22.42,0,0,1-1.15-9.1c0-.45,0-.9,0-1.35a2.8,2.8,0,0,1-.6-.3,2.06,2.06,0,0,1-.55-.7,4.9,4.9,0,0,1-.25-.7,5.05,5.05,0,0,1,0-.75v-.75c0-.37,0-.75-.05-1.15a1.23,1.23,0,0,0,0-.35l-.4-.4c-.53-.55-1.08-1.08-1.65-1.6q-.25,3.28-.6,6.55a39.67,39.67,0,0,0,0,7.55,6.29,6.29,0,0,1-.1,2.1c.14.24.29.47.45.7a15.39,15.39,0,0,1,1.35,2.85,16.84,16.84,0,0,1,.7,2.6,12.87,12.87,0,0,1,.1,2.25,10.21,10.21,0,0,1,1.45,2,6.88,6.88,0,0,1,.9,2.5,6.34,6.34,0,0,1,0,1.9c.27.47.55.94.85,1.4h-1.4a3.25,3.25,0,0,1-.85.8,6.35,6.35,0,0,1-2,.85,7.3,7.3,0,0,1-4.1-.4,2.77,2.77,0,0,1-1.15-.85,4.91,4.91,0,0,0-4,.7,30.07,30.07,0,0,0-3.15,2.2,2.22,2.22,0,0,1-.8.35q-4.46-4.6.7-11.1a20.65,20.65,0,0,0,4.55-11.3,55.56,55.56,0,0,0-.1-10.95,2.08,2.08,0,0,1-.65-.4q-.14.39-.3.75a8.14,8.14,0,0,1,.05,1.2,5.92,5.92,0,0,0-.6,1.6q-.9,3.8-1.8,7.65-.51,2.13-1.2,4.2a1.4,1.4,0,0,1-.15.3c-.09.15-.17.3-.25.45a58.25,58.25,0,0,0-3.45,7.3,68,68,0,0,1-3.1,6.6q-1.61,3-2.95,6c-.08-.3-.16-.6-.25-.9a7.27,7.27,0,0,1-.25-2.6,2,2,0,0,0-1.25-2.1c-.47,0-.79.28-1,.85a8.81,8.81,0,0,0-.25,3.4c.06.41.13.81.2,1.2a6.53,6.53,0,0,1-1.35-.4,8.78,8.78,0,0,1,0-1.45c.06-1,.1-2,.1-3a2.09,2.09,0,0,0-1.25-2.1,1.05,1.05,0,0,0-1,1,15.68,15.68,0,0,0-.35,3.35v.6a12.18,12.18,0,0,1-1.5-1.6,30.85,30.85,0,0,1-5.75-11.25,5.61,5.61,0,0,1-1.2.6.23.23,0,0,1,.1.05,1.48,1.48,0,0,1,.25.35,3.25,3.25,0,0,1,.15.4,2,2,0,0,1-.6,2.25L23,189.7a6.44,6.44,0,0,0,1.15.2,2.09,2.09,0,0,1,1.9,1.6,10.74,10.74,0,0,1,.4,2.9,2.92,2.92,0,0,1-.8,1.9,5.21,5.21,0,0,1-1,.2l-1.85.2a4.32,4.32,0,0,0-1.15.15,2.13,2.13,0,0,1-1.85-.55,1.42,1.42,0,0,1-.65-1.15c0-.08,0-.16-.05-.25a4,4,0,0,0-.45.15,4.92,4.92,0,0,1-1,.1,2.87,2.87,0,0,1-.75-.1,5.14,5.14,0,0,1-.55-.85,8.92,8.92,0,0,1-5.4.3,1.23,1.23,0,0,1-.7.4,6.81,6.81,0,0,1-4.9-.65,2.19,2.19,0,0,1-.8-.6v-1.5a2.64,2.64,0,0,1,.2-.7A1.71,1.71,0,0,1,5,191c-.19-.18-.38-.36-.55-.55a4.86,4.86,0,0,1-.85-1.35,1.38,1.38,0,0,1-.8-.25,2.93,2.93,0,0,1-.8-.65,1.23,1.23,0,0,0,0-.35,1.37,1.37,0,0,1-.05-.4,1.11,1.11,0,0,1,.2-.65,2.09,2.09,0,0,1,.7-.75,4.58,4.58,0,0,1,.8-.35l.35.15.25-.15a.12.12,0,0,0,0-.05,8.94,8.94,0,0,1,1.15-.95,9.4,9.4,0,0,0,1.1-.9,2.46,2.46,0,0,0,.3-.4q-1.08-2,1-4.4a11.2,11.2,0,0,0,.8-1l-.3-.25a1.93,1.93,0,0,1-.15-.35l-.1-.4a.75.75,0,0,1-.1-.35,1.37,1.37,0,0,1,.05-.4,5.74,5.74,0,0,1,.4-1.1c.82-.37,1.63-.7,2.45-1,.15-.32.28-.63.4-1a11,11,0,0,1,3.4-4.55,6.62,6.62,0,0,0,1.65-2,4.1,4.1,0,0,1,.5-.35,6.53,6.53,0,0,1,.85-.25c.3,0,.6,0,.9,0l.6-.1.25,0a2.24,2.24,0,0,1,1.25-.45,3.29,3.29,0,0,1,.6.15,3.46,3.46,0,0,1,.75.3.8.8,0,0,1,.45.35c.16.23.31.47.45.7a8.44,8.44,0,0,1-.3,1.25l.15.1a2.61,2.61,0,0,1,.55.55,14.37,14.37,0,0,1-.15-5.2,112.52,112.52,0,0,1,2.15-11.15,45.16,45.16,0,0,0,1.25-10.55q0-2.93,2.25-3.85a5.62,5.62,0,0,0,.15-.8,42.33,42.33,0,0,1-.4-5.1.79.79,0,0,1,0-.3.58.58,0,0,1,.35-.35l.35-.2c-.17-.93-.33-1.85-.5-2.75a1,1,0,0,1,.15-.35,3.13,3.13,0,0,1,.35-.4.69.69,0,0,1,.35-.2l.5-.1v-.1l.25.4q.07-.66.15-1.35l1.35,1.2a6.92,6.92,0,0,0,.85.15m17.25,9q-1.71-1.33-3.35-2.7a16.76,16.76,0,0,0,6-1.65,11.51,11.51,0,0,0,4.85-4,4.94,4.94,0,0,0,1.75-2.15l.15-.35.2,0q3.54-.9,7-1.9t7.1-2.25A36.62,36.62,0,0,1,86,119.6c-.56.39-1.13.77-1.7,1.15a78.64,78.64,0,0,0-10.5,8.05,92.62,92.62,0,0,0-7,7.1q-2.46,2.76-5.05,5.35a.53.53,0,0,1,0,.25,2.41,2.41,0,0,0,0,1.1c.13.4.25.8.35,1.2a3,3,0,0,1-.1,1.5,2.54,2.54,0,0,1-.6,1.1,2.18,2.18,0,0,1-1.25.5,3,3,0,0,1-2.05-.55,10.77,10.77,0,0,1-1.4-1.1,3.37,3.37,0,0,1-.8-1.2,1.83,1.83,0,0,0-.05-.4v-.35a1.37,1.37,0,0,1,.05-.4,1.93,1.93,0,0,1,.15-.35l.2-.4a1.27,1.27,0,0,0,.15-.35l-.45-.25-.9-.5a3.34,3.34,0,0,0-1.2-1.45c-1.3-.93-2.59-1.88-3.85-2.85m69.4-9.7.1-.4a.68.68,0,0,0,.1-.35l.1-.4a1.18,1.18,0,0,1,0-.35v-.75a25,25,0,0,1,7.85,8.7,34.26,34.26,0,0,1,3.8,11.95,29.65,29.65,0,0,1-.4,10,23.88,23.88,0,0,1-3.1,7.6c0,.1.06.22.1.35a2.3,2.3,0,0,0,.2.35,4.39,4.39,0,0,1,.3.45.82.82,0,0,1,.2.35,1.63,1.63,0,0,1-.05.35,4.34,4.34,0,0,1-1,1.5,16.36,16.36,0,0,1-5.85,3.4,18.37,18.37,0,0,1-5.9,1c-.69-1.06-1.39-2.13-2.1-3.2a3.76,3.76,0,0,1-3.45-1.7,15,15,0,0,0,1.7-1.1l-2.15-3.45q-2.42-3.9-4.6-7.85a20.47,20.47,0,0,0,5.7-6.95,33.53,33.53,0,0,0,3.2-9.15l.25.15a5.07,5.07,0,0,0,1.1-3q0-.3,0-.6a22.42,22.42,0,0,0-1.9-1.5q-2.81-1.95-2.3-4.15c.3.2.61.4,1,.6a.54.54,0,0,0,.4.15c.39,0,.77,0,1.15,0-.22-.58-.47-1.16-.75-1.75a7.89,7.89,0,0,0-1.4-2.2l1,.4a7.79,7.79,0,0,1,2.5,1.6,3,3,0,0,0,2.5.85,2.4,2.4,0,0,0,1.75-1m-18.2-13.8a3.89,3.89,0,0,1-2.4,2.5,7.77,7.77,0,0,0-2.6,1.8,6,6,0,0,1-2.05,1.35,3.28,3.28,0,0,1-.7-.3.8.8,0,0,1-.4-.35,1.34,1.34,0,0,1-.2-.7,1.76,1.76,0,0,0-.65-1.3.83.83,0,0,1-.3-.6,1,1,0,0,1,0-.35,1.37,1.37,0,0,1,0-.4,1.93,1.93,0,0,1,.15-.35l.2-.4a1.6,1.6,0,0,0,.15-.35,1.63,1.63,0,0,1,.15-.4,1.81,1.81,0,0,1,1-.65c1.36-.37,2.75-.7,4.15-1l1.95-.45c1.43,0,2,.68,1.55,2m-8.05,7.25v-.1a2.35,2.35,0,0,1,1.9.65,2.52,2.52,0,0,0,1.45.65l1.65.2a2.06,2.06,0,0,1,1.65,1l.1.4a1,1,0,0,0,.15.35,1.83,1.83,0,0,1,0,.4,3.52,3.52,0,0,1-.1.75c0,.13-.07.25-.1.35a2.92,2.92,0,0,1-.25.4,1.48,1.48,0,0,1-.25.35,4.28,4.28,0,0,1-3.75.45,11.89,11.89,0,0,0-1.5-.4,3.91,3.91,0,0,1-2.65-2.1,2.53,2.53,0,0,1-.1-2.3c.1-.13.18-.25.25-.35l.4-.4a1.42,1.42,0,0,1,.5-.2l.6-.1m-72.4,64.25c.12.43.23.85.35,1.25l.85-.5a4.71,4.71,0,0,1-1.2-.75m2.05-8.35a5.43,5.43,0,0,0,0-.9,5.35,5.35,0,0,1-.55-.05,3.31,3.31,0,0,1-1.15-.35l-.1.05c-.24,1.5-.49,3-.75,4.45a4.29,4.29,0,0,1-.35,1.1c.15,1,.33,2,.55,2.9A17.89,17.89,0,0,0,24.73,181v0a2.27,2.27,0,0,1-3.1-1.25c.28-.25.54-.52.8-.8.1-.81.22-1.62.35-2.45M86.23,78.55a11.39,11.39,0,0,0,6.3-6.65Q99.33,53.75,81,46.5a18.11,18.11,0,0,0-10.7,4.7,19.68,19.68,0,0,0-2.9,3.4q-7.92,11.9-.25,19.5a21.12,21.12,0,0,0,4.4,3.3q7.39,4.35,14.7,1.15m-5.35-28q8.64,3.34,8.9,12.65.45,17.06-17.5,10.8a4,4,0,0,1-2.45-2.1q-7.26-16.6,11-21.35M37.48,83c-.7.27-1.52.53-2.45.8q-10.86,2.85-4.2,10.4,10.29,11.7,22.85,1.3a3.48,3.48,0,0,0,1.4-3.5q-2.46-11.9-17.6-9m-2.15,4.7c.66-.13,1.33-.28,2-.45a28.13,28.13,0,0,1,8.7.25,8.63,8.63,0,0,1,5.7,3.25,3.2,3.2,0,0,1-1.15,2.4A11.74,11.74,0,0,1,40,96a10.83,10.83,0,0,1-8-5.85,2.86,2.86,0,0,1,1.1-1.55,4.91,4.91,0,0,1,2.25-.9M20.63,37.15c-.74-.07-1.14.3-1.2,1.1q-.21,3-.45,6a10,10,0,0,0,1.1,5.65,1.16,1.16,0,0,0,1.4-1.15l.15-1.15v-.05a.53.53,0,0,1,.05-.15h-.05c.19-1.53.32-3.08.4-4.65a9.88,9.88,0,0,0-1.3-5.6h-.1m12.5-15.9c-.3-2-.69-4-1.15-6-.14-.13-.27-.25-.4-.35l-.15-.05a2.28,2.28,0,0,0-.45-.2,1.31,1.31,0,0,0-.5-.1,2.92,2.92,0,0,0-.5-.05,2.29,2.29,0,0,0-1.15.6,14.65,14.65,0,0,0-3.9,5.6,12.36,12.36,0,0,0-.55,1.9,11.59,11.59,0,0,0-.15,3,1.6,1.6,0,0,0,1.05-.3,8.78,8.78,0,0,0,2.15-3.5,7.06,7.06,0,0,1,2.15-3.2,18.76,18.76,0,0,1,.65,2.25,14.57,14.57,0,0,1,.4,3.8c0,.49-.05,1-.1,1.45a12.85,12.85,0,0,1-.2,1.5,1.53,1.53,0,0,1-.4.35l-.4.25a22,22,0,0,0-2.9,2.45A2.13,2.13,0,0,0,26.08,33a.67.67,0,0,0,.3.25,19.57,19.57,0,0,0,3.6,1.4,3.46,3.46,0,0,0-1.05,1,5.93,5.93,0,0,0-1.3,2.8,3.45,3.45,0,0,0,.2,1.85,2.66,2.66,0,0,0,1.85.75,2.76,2.76,0,0,0,1.4-.45,4.24,4.24,0,0,0,1.5-1.65v-.4c0-.23-.07-.48-.1-.75a1.6,1.6,0,0,0-.15-.35,5.07,5.07,0,0,0-.25-.75,7,7,0,0,0,.6-.8c.56-.77,1.15-1.55,1.75-2.35a1.44,1.44,0,0,0,.3-1.35,1.23,1.23,0,0,0-1.25-.8q-3.51.2-1.65-.7A3.51,3.51,0,0,0,33.43,28a33.07,33.07,0,0,0-.3-6.75m67.1,20.4a1.23,1.23,0,0,0-1.1.3,1.68,1.68,0,0,0-.35.8,46.46,46.46,0,0,1-1.35,5.5.46.46,0,0,1-.05.1c-.64,2.26-.1,4,1.6,5.15a1.81,1.81,0,0,0,1.5-1.35,31.66,31.66,0,0,0,1.15-5.25,7,7,0,0,0-1.4-5.25m-2.7-20.3A18.25,18.25,0,0,0,93.33,15,19.34,19.34,0,0,0,91,13.1a3.3,3.3,0,0,0-2,2,64.51,64.51,0,0,1-3.25,6.8c-1.24,2.33-2.32,4.62-3.25,6.85q2.85,1.65-.5,1.5a1.23,1.23,0,0,0-1.25.75l-.1.4a5.27,5.27,0,0,0,.05,2,5.44,5.44,0,0,1,0,1.4,2.61,2.61,0,0,0,0,1.15l1,.9a7.87,7.87,0,0,0,1.2.85v0a6.3,6.3,0,0,0,.8.45,4.23,4.23,0,0,0,2.15.5A2.13,2.13,0,0,0,87.73,37a1.37,1.37,0,0,0,0-.85h0a2,2,0,0,0-.45-.55c-.44-.33-.89-.67-1.35-1a4.79,4.79,0,0,1-1.05-1.1c.4-.4,1.58-.8,3.55-1.2a1.06,1.06,0,0,0,.8-1,1.69,1.69,0,0,0-.7-1.6,13.42,13.42,0,0,0-1.65-1,4.29,4.29,0,0,1-.75-.6h0l-.4-.4.35-.2.25-.1A5.68,5.68,0,0,0,88.48,25a26.88,26.88,0,0,0,1.6-4.05,14.36,14.36,0,0,1,1.3-3,4.66,4.66,0,0,1,.35-.6l.6,1.2c.36.69.74,1.36,1.15,2a16.06,16.06,0,0,1,2.45,8.45c.06,3,1,5,2.9,6a4.22,4.22,0,0,0,.65.3,3.75,3.75,0,0,0,1.1-3.45A64.26,64.26,0,0,0,97.53,21.35Z"/><path class="cls-4" d="M93.13,120.4v.1l-.6.1a1.42,1.42,0,0,0-.5.2l-.4.4c-.07.1-.15.22-.25.35a2.53,2.53,0,0,0,.1,2.3,3.91,3.91,0,0,0,2.65,2.1,11.89,11.89,0,0,1,1.5.4,4.28,4.28,0,0,0,3.75-.45,1.48,1.48,0,0,0,.25-.35,2.92,2.92,0,0,0,.25-.4c0-.1.06-.22.1-.35a3.52,3.52,0,0,0,.1-.75,1.83,1.83,0,0,0,0-.4,1,1,0,0,1-.15-.35l-.1-.4a2.06,2.06,0,0,0-1.65-1l-1.65-.2a2.52,2.52,0,0,1-1.45-.65,2.35,2.35,0,0,0-1.9-.65m5.65-4.65a3.89,3.89,0,0,0,2.4-2.5c.4-1.27-.12-1.92-1.55-2l-1.95.45c-1.4.3-2.79.63-4.15,1a1.81,1.81,0,0,0-1,.65,1.63,1.63,0,0,0-.15.4,1.6,1.6,0,0,1-.15.35l-.2.4a1.93,1.93,0,0,0-.15.35,1.37,1.37,0,0,0,0,.4,1,1,0,0,0,0,.35.83.83,0,0,0,.3.6,1.76,1.76,0,0,1,.65,1.3,1.34,1.34,0,0,0,.2.7.8.8,0,0,0,.4.35,3.28,3.28,0,0,0,.7.3,6,6,0,0,0,2.05-1.35,7.77,7.77,0,0,1,2.6-1.8m-52.15,18.3q1.63,1.37,3.35,2.7c1.26,1,2.55,1.92,3.85,2.85a3.34,3.34,0,0,1,1.2,1.45l.9.5.45.25a1.27,1.27,0,0,1-.15.35l-.2.4a1.93,1.93,0,0,0-.15.35,1.37,1.37,0,0,0-.05.4v.35a1.83,1.83,0,0,1,.05.4,3.37,3.37,0,0,0,.8,1.2,10.77,10.77,0,0,0,1.4,1.1,3,3,0,0,0,2.05.55,2.18,2.18,0,0,0,1.25-.5,2.54,2.54,0,0,0,.6-1.1,3,3,0,0,0,.1-1.5c-.1-.4-.22-.8-.35-1.2a2.41,2.41,0,0,1,0-1.1.53.53,0,0,0,0-.25q2.59-2.59,5.05-5.35a92.62,92.62,0,0,1,7-7.1,78.64,78.64,0,0,1,10.5-8.05c.57-.38,1.14-.76,1.7-1.15a36.62,36.62,0,0,0-12.25,2.15Q70.18,123,66.63,124t-7,1.9l-.2,0-.15.35a4.94,4.94,0,0,1-1.75,2.15,11.51,11.51,0,0,1-4.85,4,16.76,16.76,0,0,1-6,1.65m-13.55-10.8a2.11,2.11,0,0,0-.65-1.1,9.19,9.19,0,0,0-.75-.65l-.2-.15a5.72,5.72,0,0,0-.8-.5.12.12,0,0,0-.05,0v0a1.29,1.29,0,0,0-1.4,1,4.16,4.16,0,0,0-.15,1.1,2.57,2.57,0,0,0,.1.75c.06.27.13.52.2.75a1.55,1.55,0,0,0,.4.3,4.44,4.44,0,0,0,1.85.4,1.67,1.67,0,0,0,1.05-.4.54.54,0,0,0,.2-.3A1.44,1.44,0,0,0,33.08,123.25Z"/><path class="cls-5" d="M119.48,126.65l-.1.4a2.4,2.4,0,0,1-1.75,1,3,3,0,0,1-2.5-.85,7.79,7.79,0,0,0-2.5-1.6l-1-.4a7.89,7.89,0,0,1,1.4,2.2c.28.59.53,1.17.75,1.75a1.23,1.23,0,0,0,.25.05,5.92,5.92,0,0,1,1.1.1,3.29,3.29,0,0,1,.6.15,27.13,27.13,0,0,1,7.15,10.6,23.93,23.93,0,0,1-6.25,26,5.63,5.63,0,0,1-2.9,1.6c.71,1.07,1.41,2.14,2.1,3.2a18.37,18.37,0,0,0,5.9-1,16.36,16.36,0,0,0,5.85-3.4,4.34,4.34,0,0,0,1-1.5,1.63,1.63,0,0,0,.05-.35.82.82,0,0,0-.2-.35,4.39,4.39,0,0,0-.3-.45,2.3,2.3,0,0,1-.2-.35c0-.13-.07-.25-.1-.35a23.88,23.88,0,0,0,3.1-7.6,29.65,29.65,0,0,0,.4-10,34.26,34.26,0,0,0-3.8-11.95,25,25,0,0,0-7.85-8.7v.75a1.18,1.18,0,0,0,0,.35l-.1.4a.68.68,0,0,1-.1.35M96,160.25c-.44-.71-.86-1.45-1.25-2.2a21.65,21.65,0,0,0-2.3-3.5l-.85,2.3c-.39,1.07-.79,2.14-1.2,3.2q.62,5.31,1.75,10.9a79,79,0,0,1,1.45,13.45c0,.47,0,.94,0,1.4h0a2.92,2.92,0,0,0,.5-.05v-.1a9,9,0,0,1,2.9,2.6c.8,1.1,1.58,2.22,2.35,3.35a9.5,9.5,0,0,1,1.4,3.35l2,.4a18.72,18.72,0,0,0,8.7-.35,23.7,23.7,0,0,0,2.7-.9,6.22,6.22,0,0,1-.9-.55,2.57,2.57,0,0,1-1-2.9l.2-.75a1.66,1.66,0,0,1,.35-.35,1,1,0,0,1,.4-.2c.63-.27,1.26-.52,1.9-.75a11.35,11.35,0,0,1,1.95-.55c.83,0,1.66,0,2.5.1a1.93,1.93,0,0,1,.75.15q0-.28,0-.6a.74.74,0,0,1-.25.05,1.9,1.9,0,0,1-1.65-.95l-.1-.4a1.18,1.18,0,0,1,0-.35v-.4a2.47,2.47,0,0,1,.1-.35,1.37,1.37,0,0,1,0-.4,3.23,3.23,0,0,1,.4-.35l.25-.2a15,15,0,0,0-1.4-1.9q-1.47-1.71-2.9-3.45a1.75,1.75,0,0,0-.2-.35,7.17,7.17,0,0,0-.4-4.85,16.57,16.57,0,0,0-2.6-4.05c-.74-.87-1.5-1.72-2.3-2.55l-.3-.3a3.17,3.17,0,0,0-.85-.6,1.3,1.3,0,0,1,.1-.15l.2-.4a1.6,1.6,0,0,0,.15-.35.38.38,0,0,0,0-.15.49.49,0,0,0,.05-.2,1.83,1.83,0,0,0-.05-.4,1.78,1.78,0,0,0-1.4-1.35h0a18.13,18.13,0,0,0-5.05-.4,14.73,14.73,0,0,1-2.1-.05,4.85,4.85,0,0,1-3.1-1.6c-.31-.34-.63-.68-1-1m3.1,6v.05a.19.19,0,0,0,0-.1l0,.05m11.55,18.2v0l.85.3a1,1,0,0,1,.45.4,2.51,2.51,0,0,1,.4.7l.2.75a.89.89,0,0,1-.1.35,1.87,1.87,0,0,1-1.8,1.4,2.19,2.19,0,0,1-1.75-.9l-.1-.35a1.83,1.83,0,0,0,0-.4,1.18,1.18,0,0,1,0-.35.85.85,0,0,1,.1-.4,2.47,2.47,0,0,1,.1-.35l.25-.35a1.89,1.89,0,0,1,.4-.4,1.42,1.42,0,0,1,.5-.2,3.29,3.29,0,0,0,.6-.15m5-1.3c.4.1.8.22,1.2.35a1.29,1.29,0,0,1,.9,1.05,1.33,1.33,0,0,1-.45,1.35,4.54,4.54,0,0,1-1.2.7,2.14,2.14,0,0,1-.45.05,6.4,6.4,0,0,1-1.2-.7,1,1,0,0,1-.5-1,1.58,1.58,0,0,1,.9-1.4,4.58,4.58,0,0,1,.8-.35M64.63,194H66c-.3-.46-.58-.93-.85-1.4,0,.13-.07.26-.1.4a3.25,3.25,0,0,1-.45,1M24.78,180.9h-.05v0s.05,0,.05,0m-6.25-15c-.3,0-.6,0-.9,0a6.53,6.53,0,0,0-.85.25,4.1,4.1,0,0,0-.5.35,6.62,6.62,0,0,1-1.65,2,11,11,0,0,0-3.4,4.55c-.12.32-.25.63-.4,1a18,18,0,0,1-2.25,3.85,11.2,11.2,0,0,1-.8,1q-2,2.38-1,4.4a2.46,2.46,0,0,1-.3.4,9.4,9.4,0,0,1-1.1.9,8.94,8.94,0,0,0-1.15.95.12.12,0,0,1,0,.05L4,185.8l.4.15c.16.1.33.22.5.35a1.48,1.48,0,0,1,.25.35,1.25,1.25,0,0,1,.2.4,1.25,1.25,0,0,1,0,.7,3.77,3.77,0,0,1-.5.75,1.41,1.41,0,0,1-1.2.55,4.86,4.86,0,0,0,.85,1.35c.17.19.36.37.55.55a1.26,1.26,0,0,1,.2-.2,1.81,1.81,0,0,1,.9-.45,3.06,3.06,0,0,1,1.8.15c.46.17,1,.35,1.45.55a4.94,4.94,0,0,1,1.45.85,1.18,1.18,0,0,1,.45,1.05,1.57,1.57,0,0,1,0,1.15,1.77,1.77,0,0,1-.3.45,8.92,8.92,0,0,0,5.4-.3,4.1,4.1,0,0,1-.35-2.15,4.56,4.56,0,0,1,.9-2.45,10.23,10.23,0,0,1,2.5-2.45c.58-.42,1.14-.8,1.7-1.15-.12-.4-.23-.82-.35-1.25a5.68,5.68,0,0,1-.85-.85q.3-.14.6-.3c-.22-.94-.4-1.91-.55-2.9a4.29,4.29,0,0,0,.35-1.1c.26-1.46.51-2.95.75-4.45a.31.31,0,0,0,0-.1,23.17,23.17,0,0,0,.35-4.5,13,13,0,0,0-.55-3.75c-.14-.13-.27-.25-.4-.35a1.09,1.09,0,0,0-.5-.35,5.72,5.72,0,0,0-.6-.25l-.25,0-.6.1M7.08,185.35a1.45,1.45,0,0,1,.55-.2l.75.3a1.83,1.83,0,0,1,.8,1.1,3,3,0,0,1,.1.75,2.3,2.3,0,0,0-.2.35,3.13,3.13,0,0,1-.6.7,1.08,1.08,0,0,1-1.55.1,4.49,4.49,0,0,1-.75-.7A1,1,0,0,1,6,187.4a.75.75,0,0,1-.1-.35.85.85,0,0,1,.1-.4,1.66,1.66,0,0,1,.35-.65,1.84,1.84,0,0,1,.7-.65m3.1,3.2a1.18,1.18,0,0,1,.2-.7,1.29,1.29,0,0,1,.55-.6,5.83,5.83,0,0,1,.7-.25v-.1a4.51,4.51,0,0,1,1,.75,1.16,1.16,0,0,1,.2,1.35,1,1,0,0,1-1.15.7,3.66,3.66,0,0,1-1.15-.4,2.19,2.19,0,0,1-.25-.4.75.75,0,0,1-.1-.35M34,129.5a8.85,8.85,0,0,1-1.25-1.7,6.92,6.92,0,0,1-.85-.15l-1.35-1.2q-.08.69-.15,1.35,4.79,7.63,4.55,18.25-.21,10.2-.35,20.25a23.61,23.61,0,0,1-7.3,17.25,9.63,9.63,0,0,1-1.7,1.35,30.85,30.85,0,0,0,5.75,11.25,12.18,12.18,0,0,0,1.5,1.6v-.6a15.68,15.68,0,0,1,.35-3.35,1.05,1.05,0,0,1,1-1,2.09,2.09,0,0,1,1.25,2.1c0,1,0,2-.1,3a8.78,8.78,0,0,0,0,1.45,6.53,6.53,0,0,0,1.35.4c-.07-.39-.14-.79-.2-1.2a8.81,8.81,0,0,1,.25-3.4c.16-.57.48-.85,1-.85a2,2,0,0,1,1.25,2.1,7.27,7.27,0,0,0,.25,2.6c.09.3.17.6.25.9q1.35-3,2.95-6a68,68,0,0,0,3.1-6.6,58.25,58.25,0,0,1,3.45-7.3c.08-.15.16-.3.25-.45a1.4,1.4,0,0,0,.15-.3q.69-2.07,1.2-4.2.9-3.85,1.8-7.65a5.92,5.92,0,0,1,.6-1.6,8.14,8.14,0,0,0-.05-1.2q.16-.36.3-.75c.32-.72.65-1.46,1-2.2a3.51,3.51,0,0,0,.85-.55,3.77,3.77,0,0,1,5.3-.15l.7.55c.57.52,1.12,1,1.65,1.6l.4.4a1.23,1.23,0,0,1,0,.35c0,.4.05.78.05,1.15v.75a5.05,5.05,0,0,0,0,.75,4.9,4.9,0,0,0,.25.7,2.06,2.06,0,0,0,.55.7,2.8,2.8,0,0,0,.6.3c0,.45,0,.9,0,1.35a22.42,22.42,0,0,0,1.15,9.1q1.54,4.61,2.85,9.1l.15.6a22.06,22.06,0,0,0,6.65,9.35,18,18,0,0,0,3.55,2.35c.13-.72.23-1.44.3-2.15s.38-1.08.95-1.15a1.6,1.6,0,0,1,1.15,1.75,15.25,15.25,0,0,0,0,2.25,1,1,0,0,1,0,.25,15.29,15.29,0,0,0,2.9.55c0-.39,0-.79,0-1.2a13.8,13.8,0,0,1,.6-3.35c.13-.47.46-.63,1-.5a3.17,3.17,0,0,1,1.1,2.6,19.78,19.78,0,0,0,.15,2.45l.5,0c.32-1.16.58-2.34.8-3.55a1.7,1.7,0,0,0,.45-1.05,49.74,49.74,0,0,0,.4-5.3A21.43,21.43,0,0,0,89,187.5c0-2.63-.18-5.27-.4-7.9q-8.07-.09-10.55-10a57.26,57.26,0,0,1-1.4-19.7,62.21,62.21,0,0,1,5.2-19.3,21.69,21.69,0,0,1,3-4.9c-.89.61-1.81,1.21-2.75,1.8a52.93,52.93,0,0,0-8.95,7.1q-4.05,4-8.1,7.9l-.6.6a23.3,23.3,0,0,0-3.15,3.8l-.3.5a4.86,4.86,0,0,1-.55.1H58.93a5,5,0,0,1-1.1-.25,6.94,6.94,0,0,1-.8-.35,18.94,18.94,0,0,1-3-1.75l-.75-.6a27.09,27.09,0,0,1-2.4-2.15,1.21,1.21,0,0,1-.4-1c-.74-.61-1.51-1.19-2.3-1.75q-1.9-1.35-3.75-2.75c-.84-.63-1.64-1.27-2.4-1.9a4.17,4.17,0,0,1-1.35-1.75,17.54,17.54,0,0,1-1.65-.65l0,0a15.36,15.36,0,0,1-4.45-2.6q-.3-.28-.6-.6M28.33,72.85q2.57-4.25-2.45-9.45c.66,1.17,1.33,2.32,2,3.45a6.19,6.19,0,0,1,.45,6M60.88,118v.2a5.39,5.39,0,0,1,1.8-.65l.7-.45a6,6,0,0,1-1,.45,9.94,9.94,0,0,1-1.5.45M26.78,79.85A9.11,9.11,0,0,1,23,81.2q-6.51.94-10.35-1.1a6.83,6.83,0,0,1-.3,4.1,1.4,1.4,0,0,1-.15.3l.3-.1q5,2.1,1.15,5.9-1.26,1.2-2.1,1c-.1.63-.09,1,.05,1.15a5.15,5.15,0,0,1,3.25,2.15,17.08,17.08,0,0,1,4.8-5.8,28.39,28.39,0,0,0,7.15-9M31.08,52a6.6,6.6,0,0,0-7.3.3A31.71,31.71,0,0,1,17,55.8l.2.3c.75-.23,1.52-.43,2.3-.6q9.6,3,12.1,8.45c.1-1,.18-2,.25-3a29.77,29.77,0,0,0-.75-9m60-2.6a28,28,0,0,1-5.65-7.15,16,16,0,0,0-12.9,6,28.74,28.74,0,0,0-2.2,2.9A18.11,18.11,0,0,1,81,46.5q18.34,7.24,11.55,25.4a11.39,11.39,0,0,1-6.3,6.65q-7.31,3.2-14.7-1.15a21.12,21.12,0,0,1-4.4-3.3c.06.57.15,1.13.25,1.7a5.86,5.86,0,0,0,1.75,3q2.79,2.75,5.3,5.6c.5,0,1,0,1.6,0q6-.34,7.7,5.6,5.44,19.95-12,28.1c0,.1-.06.2-.1.3,1.19-.26,2.35-.56,3.5-.9a82.9,82.9,0,0,1,12.45-2.7,11.63,11.63,0,0,1,1.55.1,12.53,12.53,0,0,1,2.55-5.1,8.6,8.6,0,0,1-2.35-.8,44.58,44.58,0,0,0,13.1-9.35,15.08,15.08,0,0,0,3.75-6.9,2.57,2.57,0,0,1,1.15,0c.7.27,1.06.13,1.1-.4V92c0-1.27.13-2.54.25-3.8a82.45,82.45,0,0,0-1-8.55q-1.11-6.25-1.6-12.6a5.72,5.72,0,0,1-1.45-2c-.34,0-.69,0-1,0a11.06,11.06,0,0,1-1,.85l-.3-1-.7-.15-.5-.4a.81.81,0,0,1-.3-.4,2.05,2.05,0,0,1-.2-.7q-.06-.34-.15-.75A9.72,9.72,0,0,1,96,57a18.11,18.11,0,0,0-5-7.55M90,86.2a6,6,0,0,1,2.35-1.3,3.29,3.29,0,0,0,.6-.15,5,5,0,0,1,3.25,5.45,4.3,4.3,0,0,1-3.75,4.1,2.82,2.82,0,0,1-2.85-.9,2.4,2.4,0,0,1-.4-1.5,5.61,5.61,0,0,0-.35-2.25,3.23,3.23,0,0,1,0-2.25A13.09,13.09,0,0,1,90,86.2M24.38,22.6c-.18.49-.35,1-.5,1.5q-1.5,4.95-2.7,10c-.24,1-.42,2-.55,3h.1a9.88,9.88,0,0,1,1.3,5.6c-.08,1.57-.21,3.12-.4,4.65h.05a10.17,10.17,0,0,0,3.7-2.4,38.18,38.18,0,0,1,4.2-3.75l.1-.25a2.66,2.66,0,0,1-1.85-.75,3.45,3.45,0,0,1-.2-1.85,5.93,5.93,0,0,1,1.3-2.8,3.46,3.46,0,0,1,1.05-1,19.57,19.57,0,0,1-3.6-1.4.67.67,0,0,1-.3-.25,2.13,2.13,0,0,1,.55-2.35,22,22,0,0,1,2.9-2.45,12.58,12.58,0,0,0,1-2.1c0-.48.08-1,.1-1.45a14.57,14.57,0,0,0-.4-3.8,18.76,18.76,0,0,0-.65-2.25,7.06,7.06,0,0,0-2.15,3.2,8.78,8.78,0,0,1-2.15,3.5,1.6,1.6,0,0,1-1.05.3,11.59,11.59,0,0,1,.15-3m68-4.15a6.32,6.32,0,0,0-1-.6,14.36,14.36,0,0,0-1.3,3A26.88,26.88,0,0,1,88.48,25a5.68,5.68,0,0,1-2.15,2.35,1.49,1.49,0,0,0-.15.45.65.65,0,0,0-.05.25h0a4.29,4.29,0,0,0,.75.6,13.42,13.42,0,0,1,1.65,1,1.69,1.69,0,0,1,.7,1.6,1.06,1.06,0,0,1-.8,1c-2,.4-3.15.8-3.55,1.2a4.79,4.79,0,0,0,1.05,1.1c.46.33.91.67,1.35,1a2,2,0,0,1,.45.55h0a1.37,1.37,0,0,1,0,.85,2.13,2.13,0,0,1-1.8,1.55,19,19,0,0,0,4.25,4.9,47.66,47.66,0,0,0,7.2,4.9.46.46,0,0,0,.05-.1,46.46,46.46,0,0,0,1.35-5.5,1.68,1.68,0,0,1,.35-.8q0-3.57-.3-7.1c-1.88-1-2.84-2.94-2.9-6a16.06,16.06,0,0,0-2.45-8.45C93.07,19.81,92.69,19.14,92.33,18.45Z"/><path class="cls-6" d="M92.28,186.3a1.25,1.25,0,0,0-.35.4,1,1,0,0,0-.15.35,1.52,1.52,0,0,0,.35,1.6l.85,1a1.69,1.69,0,0,0-.3.6,3.65,3.65,0,0,0-.1,1.9,12.85,12.85,0,0,1,.2,1.5,10.8,10.8,0,0,0,.1,1.5,3.63,3.63,0,0,0,.3.35c.4.37.76.73,1.1,1.1a1.69,1.69,0,0,0,2,.5l.65-.3a2,2,0,0,0,.3-.65,2.3,2.3,0,0,0,2.85,1.4,2.22,2.22,0,0,0,.8-2.25c0-.12,0-.23,0-.35a9.5,9.5,0,0,0-1.4-3.35c-.77-1.13-1.55-2.25-2.35-3.35a9,9,0,0,0-2.9-2.6v.1a2.92,2.92,0,0,1-.5.05h0L93,186a.82.82,0,0,0-.4.1,1.3,1.3,0,0,0-.35.25M61,161.55l-.7-.55a3.77,3.77,0,0,0-5.3.15,3.51,3.51,0,0,1-.85.55c-.35.74-.68,1.48-1,2.2a2.08,2.08,0,0,0,.65.4,55.56,55.56,0,0,1,.1,10.95,20.65,20.65,0,0,1-4.55,11.3q-5.16,6.49-.7,11.1a2.22,2.22,0,0,0,.8-.35,30.07,30.07,0,0,1,3.15-2.2,4.91,4.91,0,0,1,4-.7,2.77,2.77,0,0,0,1.15.85,7.3,7.3,0,0,0,4.1.4,6.35,6.35,0,0,0,2-.85,2.9,2.9,0,0,0,1.3-1.8c0-.14.07-.27.1-.4a6.34,6.34,0,0,0,0-1.9,6.88,6.88,0,0,0-.9-2.5,10.21,10.21,0,0,0-1.45-2,12.87,12.87,0,0,0-.1-2.25,16.84,16.84,0,0,0-.7-2.6,15.39,15.39,0,0,0-1.35-2.85c-.16-.23-.31-.46-.45-.7a6.29,6.29,0,0,0,.1-2.1,39.67,39.67,0,0,1,0-7.55q.34-3.27.6-6.55M23.13,184.9q-.59.27-1.2.6l-.85.5c-.56.35-1.12.73-1.7,1.15a10.23,10.23,0,0,0-2.5,2.45,4.56,4.56,0,0,0-.9,2.45,4.1,4.1,0,0,0,.35,2.15,5.14,5.14,0,0,0,.55.85,2.87,2.87,0,0,0,.75.1,4.92,4.92,0,0,0,1-.1,4,4,0,0,1,.45-.15c0,.09,0,.17.05.25a1.42,1.42,0,0,0,.65,1.15,2.13,2.13,0,0,0,1.85.55,4.32,4.32,0,0,1,1.15-.15l1.85-.2a5.21,5.21,0,0,0,1-.2,2.92,2.92,0,0,0,.8-1.9,10.74,10.74,0,0,0-.4-2.9,2.09,2.09,0,0,0-1.9-1.6,6.44,6.44,0,0,1-1.15-.2l1.3-1.15a2,2,0,0,0,.6-2.25,3.25,3.25,0,0,0-.15-.4,1.48,1.48,0,0,0-.25-.35.23.23,0,0,0-.1-.05,1.14,1.14,0,0,0-.4-.3Z"/><path class="cls-7" d="M53.93,123.1q2.34-6.7,4.4-13.55a24.92,24.92,0,0,1-8.25-.4,26.34,26.34,0,0,1-2.6,4.65,16,16,0,0,0-2.75,7.45,5.37,5.37,0,0,1-1.5,3.5,11.92,11.92,0,0,1-.95-6.7,23.27,23.27,0,0,1,2.9-8.4,9.31,9.31,0,0,1,1.15-1.55,1.8,1.8,0,0,0-.4-.15,54.11,54.11,0,0,0-7.15,9.2,18.75,18.75,0,0,0-2.85,9.5,1.76,1.76,0,0,1-.2.75,28.42,28.42,0,0,0,4.1,2.4,41.17,41.17,0,0,0,9.25-1.25,7.2,7.2,0,0,0,3-1.5A18.4,18.4,0,0,0,53.93,123.1Z"/><path class="cls-8" d="M16.38,60.85A1.66,1.66,0,0,1,16,60.5a.47.47,0,0,0-.25-.25,1,1,0,0,0-.45-.1q-11.8,9.95,1.45,16.9a6.86,6.86,0,0,0,7.1-.15,17.43,17.43,0,0,0,1.95-1.35l1.35-1.2a7.5,7.5,0,0,0,1.15-1.5,6.19,6.19,0,0,0-.45-6c-.67-1.13-1.34-2.28-2-3.45a16.88,16.88,0,0,0-1.35-1.3A7.5,7.5,0,0,0,19.48,60c-.27.13-.52.27-.75.4l-.65.35a5.09,5.09,0,0,1-.6.25,2.92,2.92,0,0,1-.5,0,2,2,0,0,1-.6-.2m.2,4.15a3.65,3.65,0,0,1,.75,1.85,4.1,4.1,0,0,1-.8,3,2.25,2.25,0,0,1-2.05.9,1.94,1.94,0,0,1-1.85-2.1,8.3,8.3,0,0,1,.65-3.3,1.29,1.29,0,0,1,1.2-.95c.33,0,.66,0,1,0a2,2,0,0,1,.7.25,1,1,0,0,1,.4.3m73.2-1.85q-.25-9.3-8.9-12.65-18.3,4.76-11,21.35A4,4,0,0,0,72.28,74q17.94,6.26,17.5-10.8m-9.7.6Q79,58.5,84,57.5q5.79,3.64.25,8Q81,68,80.08,63.75Z"/><path class="cls-9" d="M17.33,66.85A3.65,3.65,0,0,0,16.58,65a1,1,0,0,0-.4-.3,2,2,0,0,0-.7-.25c-.34,0-.67,0-1,0a1.29,1.29,0,0,0-1.2.95,8.3,8.3,0,0,0-.65,3.3,1.94,1.94,0,0,0,1.85,2.1,2.25,2.25,0,0,0,2.05-.9,4.1,4.1,0,0,0,.8-3M84,57.5q-5,1-3.9,6.25.9,4.25,4.15,1.7Q89.78,61.15,84,57.5Z"/><path class="cls-10" d="M37.33,87.25c-.67.17-1.34.32-2,.45a4.91,4.91,0,0,0-2.25.9A2.86,2.86,0,0,0,32,90.15,10.83,10.83,0,0,0,40,96a11.74,11.74,0,0,0,10.6-2.85,3.2,3.2,0,0,0,1.15-2.4A8.63,8.63,0,0,0,46,87.5,28.13,28.13,0,0,0,37.33,87.25Z"/><path class="cls-11" d="M91.63,188.45a4.1,4.1,0,0,0-.5.35,1.66,1.66,0,0,0-.35.35,1.4,1.4,0,0,0,0,1.65q7.85,11.14,23.55,6.65a23.89,23.89,0,0,0,8.45-4.35,6,6,0,0,1,.75-.55,3.81,3.81,0,0,0,2-3.9,5.76,5.76,0,0,0-6-.4,26.48,26.48,0,0,1-9,2.2,41.59,41.59,0,0,1-9.35-.55,46.7,46.7,0,0,1-8.15-2.25.16.16,0,0,1,0,.1,0,0,0,0,1,0,.05l-.55.25a5.82,5.82,0,0,0-.85.4m3.5-68.8v.1a2,2,0,0,0-2,1.15,17.21,17.21,0,0,0-.9,1.95A4.28,4.28,0,0,0,92,125a5.56,5.56,0,0,0,.3,1.15,1.66,1.66,0,0,0,.35.35,1.36,1.36,0,0,0,.55.35,3,3,0,0,0,.95.25,5.27,5.27,0,0,0,.65,0,2.15,2.15,0,0,0,1.3-1.5,8.81,8.81,0,0,1,.7-1.9,4.47,4.47,0,0,0,.5-1.85,1.5,1.5,0,0,0-.4-1.15,1.41,1.41,0,0,0-.3-.3,1.91,1.91,0,0,0-.6-.4l-.85-.3m39.05,28.45a3.89,3.89,0,0,0-.7-3c-.17-.13-.34-.25-.5-.35a7,7,0,0,0-.85-.25l-.3,0a12.27,12.27,0,0,0-1.1-5.6.62.62,0,0,0-.6.25,26,26,0,0,0-3.55,6.4,27.43,27.43,0,0,1-5.3,8.65,41.16,41.16,0,0,1-10.5,8.4q-1.34.56-2.7,1.05c-.78.26-1,.58-.65.95v.05a2.47,2.47,0,0,0-.1.35v.75l.1.4a.75.75,0,0,0,.1.35,3.6,3.6,0,0,0,3.3,1.3,3.47,3.47,0,0,0,.3,2.85,10.85,10.85,0,0,0,3.4,1.75,12.33,12.33,0,0,0,8.35-.3,18.41,18.41,0,0,0,7.25-5.05,5.33,5.33,0,0,0,.75-6.55,5.32,5.32,0,0,0-.75-.3l-.2-.1a15,15,0,0,0,3.3-8.35,27.44,27.44,0,0,0,1-3.55m-87.05,46a8.29,8.29,0,0,0,4.5-.05,19.25,19.25,0,0,1,3.95-.75v.65a2.47,2.47,0,0,0,.1.35l.2.4a2.92,2.92,0,0,1,.25.4,2.7,2.7,0,0,0,2.75.9,4.8,4.8,0,0,0,2-1,2.77,2.77,0,0,0,.8-1.15h.05a3.76,3.76,0,0,0,3.75,1.5c1.78-.27,2.85-.89,3.2-1.85a27.74,27.74,0,0,0,7.85,7q7,4.2,12.5-.7,2.15-1.95-.55-2.9a62.37,62.37,0,0,1-8-3.45,28.68,28.68,0,0,1-14-16.3,3.43,3.43,0,0,0-.55-.35l-.85-.3v.1l-.6.1a1.42,1.42,0,0,0-.5.2,1.89,1.89,0,0,0-.4.4l-.25.35a11.79,11.79,0,0,0-.1,3.6l-.2-.25a6.43,6.43,0,0,0-6.45-2.25v.1a12.28,12.28,0,0,0-6.3,3.6,7.78,7.78,0,0,0-2.15,4.3q-.09.69-.15,1.35a8.32,8.32,0,0,0-2.3,2.8,2,2,0,0,0,0,1.7,2.3,2.3,0,0,0,1,1.15l.5.4m-20.75-22a34.25,34.25,0,0,0-1.75-12.65v.1a2.92,2.92,0,0,1-.5.05l-.5.1a3.29,3.29,0,0,0-.6.15.53.53,0,0,0-.25.15,1.36,1.36,0,0,0-.25.2,21.15,21.15,0,0,0-1.35,7.9,108.85,108.85,0,0,0,.65,12,40,40,0,0,0,1.9,8.55q-2.11.85-4.5,1.65a23.61,23.61,0,0,1-7.85,1.15l-.25-.25c-1-.8-2-1.58-3.05-2.35a2.59,2.59,0,0,0-2.5-.4,2.62,2.62,0,0,0-1.2.9,9.45,9.45,0,0,0,2,5.65q3.54,4.7,9.85,3.85a22.22,22.22,0,0,0,9.7-3.7c.23-.16.45-.33.65-.5.27.48.56,1,.85,1.4q6.24,9.8,14.75,5.55v-.4a6.9,6.9,0,0,0-.05-.75,2.87,2.87,0,0,0-.25-.75.82.82,0,0,0-.2-.35,2.92,2.92,0,0,0-.25-.4,16.24,16.24,0,0,1-1.8-.55,13.11,13.11,0,0,0,5.55-3.3,2.92,2.92,0,0,0-2.5-2.7,47.45,47.45,0,0,0-6.55-1.15,8.63,8.63,0,0,1-6.5-3.9,16.78,16.78,0,0,1-2.2-4.7,45,45,0,0,1-1-10.55m7.5-77.15a2,2,0,0,0,1.75,1.85c.7.17,1.38.32,2,.45a17.21,17.21,0,0,0,9.2-.5,5.46,5.46,0,0,0,4-4.15,1.48,1.48,0,0,0-.25-.35c-.14-.13-.27-.25-.4-.35a1.54,1.54,0,0,0-.6-.25c-.34,0-.67,0-1,0a9.19,9.19,0,0,0-1.55.5,15.24,15.24,0,0,1-9.3.9q-3.06-.65-3.9,2M29.13,17.8q-2.7.45-2.85,3.5-.15,4.15-.45,8.25a16.4,16.4,0,0,1-3.5,9.1q-3.45,4.45-1.55,8.5a4.52,4.52,0,0,0,3.7-1.3,3.18,3.18,0,0,0,2.7-1.1,20.74,20.74,0,0,1,2.55-2.25,2.17,2.17,0,0,0,.8-1.85l-.3-.7A1.48,1.48,0,0,0,30,39.6a1.09,1.09,0,0,0-.5-.35l-.65-.3c.41-.84.77-1.71,1.1-2.6a41.69,41.69,0,0,0,2.15-9.3,18.63,18.63,0,0,0-.95-8.25c-.14-.13-.27-.25-.4-.35a6.21,6.21,0,0,0-.6-.35,6.66,6.66,0,0,0-1-.3m78.2,76.35a43.33,43.33,0,0,0,3.35-14.55q.54-10.35-5.55-16.8c-2,.4-2.84,1.68-2.5,3.85a60.66,60.66,0,0,1,.6,9.75,33.64,33.64,0,0,1-1.75,9.7,18.74,18.74,0,0,0-.85,3.6,22.18,22.18,0,0,1-3.4,3.85,82.5,82.5,0,0,1-31.35,17.5,7.72,7.72,0,0,0-4.4,3q-1.93,2.73-.4,3.45l-.75,1c-.64.9-.47,1.38.5,1.45a68.06,68.06,0,0,0,17.55-1q-7.18,2.6-14.2,5.25c-2,.73-4.07,1.37-6.15,1.9a30.15,30.15,0,0,0,1.25-10.15,11.15,11.15,0,0,0-.6-3.15,3,3,0,0,0,.85-1.4,2.15,2.15,0,0,0-.25-1.85,1,1,0,0,1-.15-.35,5.34,5.34,0,0,0-1.05-.65,1.9,1.9,0,0,0-.95-.25c-.78-.06-1.56-.1-2.35-.1-.34-.21-.71-.41-1.1-.6a16.7,16.7,0,0,0-10-1.3,4.53,4.53,0,0,1-.75.15A4,4,0,0,0,40.33,108a5.86,5.86,0,0,0-.45.6,6.42,6.42,0,0,0-1.7.15A15.72,15.72,0,0,1,31,108.6a24.46,24.46,0,0,1-7-2.85,25.31,25.31,0,0,0-6.9-3c-.84.07-1.19.53-1.05,1.4a8,8,0,0,0,5.45,6.45,30.62,30.62,0,0,1,4.2,1.9,21.76,21.76,0,0,0,5.3,2c-.24.25-.47.51-.7.8q-2.55,3.15,1.3,5.45t4.9-1.7a4.78,4.78,0,0,0-.4-3.85h.5c2.81,0,4.71-.89,5.7-2.6a32.33,32.33,0,0,1,7.15,0,3.41,3.41,0,0,1,3.05,2.3,13.09,13.09,0,0,1,.15,8.35,12.29,12.29,0,0,0-.5,4.35,33.5,33.5,0,0,0-10.9,5.65c.6,2.17,2.06,3.12,4.4,2.85a46.11,46.11,0,0,0,14.9-4.45l.4-.2a8.41,8.41,0,0,0,3,.3,24.92,24.92,0,0,0-4.85,5.25c-1.64,2.37-1.64,4.28,0,5.75a7.61,7.61,0,0,0,2.95-2.6,26.24,26.24,0,0,1,4.75-5.45c1.9-1.7,3.81-3.4,5.75-5.1a15.12,15.12,0,0,0,1.55-1.55q2-1.15,4.05-2.1c.71-.28,1.4-.58,2-.9s1.07-.41,1.6-.6a9.82,9.82,0,0,0,5.3-4.2q.78-.7,1.5-1.5a3.07,3.07,0,0,0-.2-.7,2.14,2.14,0,0,0-.2-.4.88.88,0,0,0,0-.15l-.1,0-.2-.25a2.11,2.11,0,0,0-.5-.35,4,4,0,0,0-.65-.25,23.42,23.42,0,0,0,5-2.95c.23-.17.46-.36.7-.55a3,3,0,0,0-.7,2.35,2.66,2.66,0,0,0,.65,1.45,3.47,3.47,0,0,0,1,.6,4.57,4.57,0,0,0,3.5.1,4,4,0,0,0,1-.55,8.18,8.18,0,0,0,.25-.8,7.59,7.59,0,0,1,.45-1.4,5.39,5.39,0,0,0,.45-1.55,3,3,0,0,0-.2-1.5,5.18,5.18,0,0,0-.35-.75c-.14-.13-.27-.25-.4-.35a6.21,6.21,0,0,0-.6-.35,6.66,6.66,0,0,0-1-.3,3.41,3.41,0,0,0-.55,0,46.6,46.6,0,0,0,11.25-16.2M93.88,17.45a1,1,0,0,1-.25-.05,4.37,4.37,0,0,0-2.9,1.15,17.35,17.35,0,0,0-5.3,8.15,23.76,23.76,0,0,0-1.1,8.2,7.06,7.06,0,0,0,1.6,4.8,16.92,16.92,0,0,0,.8,1.85q4.09,8.21,10.65,5.35a8.08,8.08,0,0,0-3.1-3.15,11.61,11.61,0,0,1-2.5-1.9,9.08,9.08,0,0,0,.4-2.7,41.78,41.78,0,0,1,.65-7.45,26.21,26.21,0,0,1,2.25-7.25,10.15,10.15,0,0,0,.8-6.65c-.17-.13-.34-.25-.5-.35l-.75-.3Q94.24,17.28,93.88,17.45Z"/><path class="cls-12" d="M39.13,118.4A2.29,2.29,0,0,0,38,119a5.53,5.53,0,0,0-1.75,3,14.71,14.71,0,0,0-.4,3,2.25,2.25,0,0,0,1.8,2.5,1.64,1.64,0,0,0,1.45-1.4c.2-.9.41-1.8.65-2.7l.7-2.9a1.62,1.62,0,0,0-1.3-2.15m2.5-31.35a21.38,21.38,0,0,0-2.5-.25l-1.6.35c-.8.2-1.6.38-2.4.55a7.27,7.27,0,0,0-2.15,1,1.4,1.4,0,0,0-.65,1.55,1.23,1.23,0,0,1,.05.35,2.07,2.07,0,0,0,1,.4,29.43,29.43,0,0,0,5.45-.45c2.26-.37,4.53-.83,6.8-1.4a8,8,0,0,0,1.65-.55,1.37,1.37,0,0,0-1.15-.75c-.7-.1-1.4-.22-2.1-.35S42.43,87.15,41.63,87.05Z"/><path class="cls-3" d="M106.83,24.65Q103.73,7.2,88,0a12.25,12.25,0,0,0-7.55,6.4q-4.56,8.75-9.05,17.5a23.66,23.66,0,0,0-1.65,3.9,25.27,25.27,0,0,1-8.85-2.9A44,44,0,0,0,53,21.5a2.21,2.21,0,0,0-.5.15,1.16,1.16,0,0,0-.7,1.65A10,10,0,0,0,53,25.35c.36.5.75,1,1.15,1.55A21.39,21.39,0,0,0,56,29a22.49,22.49,0,0,1-5,1.15c-1,.13-2.07.3-3.1.5a9,9,0,0,0-1.05-4.2q-3.3-6.56-6.3-13.25a36.22,36.22,0,0,0-6.05-9.35,9,9,0,0,0-1-.15c-1.17-.07-2.34-.1-3.5-.1A27.06,27.06,0,0,0,19.73,15.65a94.12,94.12,0,0,0-7,23.65,38.94,38.94,0,0,0,1.1,18.4,16,16,0,0,0-3,2.3,11.08,11.08,0,0,0-3.75,8.65q.15,6.9,3.6,10.1A4.15,4.15,0,0,0,9.23,81.2q-.36,1.39-.6,2.85c.06.13.13.28.2.45v0q.33.66.6,1.35c-.14,2.17-.37,4.28-.7,6.35a14.05,14.05,0,0,0,.6,7.1,1.59,1.59,0,0,0,1.65.6,1.73,1.73,0,0,0,1.2-.8.88.88,0,0,1,.05.15l.25.5c.16.31.33.61.5.9a1.18,1.18,0,0,1-.05-.35.38.38,0,0,1,0-.15l.85,1.8c.26.57.51,1.13.75,1.7a7,7,0,0,0,2.2,3c.43.77.85,1.57,1.25,2.4.6.47,1.23.92,1.9,1.35q4.55,3,8.45,6.05c-.07,1.63-.22,3.27-.45,4.9A63.69,63.69,0,0,1,25,133a19,19,0,0,0-1.1,7,56.39,56.39,0,0,0-2.1,9.1q-.75,5.35-1.3,10.75l-.15.05a4.66,4.66,0,0,1-.5.25,1.31,1.31,0,0,0-.3.4,71.35,71.35,0,0,1-7.25,9.3A151.63,151.63,0,0,0,1.83,182.7q-3.81,5.2.3,9.65,9,9.59,18.6,6.45a29.74,29.74,0,0,1,3.4.25,20.84,20.84,0,0,0,2.5.15c.4,0,.8,0,1.2,0a17.51,17.51,0,0,0,13.3,5.9,6.08,6.08,0,0,0,1.45-1.6q1.17-1.92,2.25-3.95a57.63,57.63,0,0,1,21.1.65,6.87,6.87,0,0,0,2.6.15,7.61,7.61,0,0,0,.85.25,12,12,0,0,0,2.25.3,18.93,18.93,0,0,0,14.15,5.2,3,3,0,0,0,1.35.25,1.8,1.8,0,0,0,.25-.4,23.92,23.92,0,0,0,4.15-.85,35.8,35.8,0,0,0,1-4q2-.3,4-.75l.15-.05a5.26,5.26,0,0,0,.6.15Q116,204.15,125.63,189a3.09,3.09,0,0,0,0-3.75q-3.66-5.22-7.25-10.6,4.8-.28,10-4.05a50.14,50.14,0,0,1,6.85-4.2q4.8-2.44,4.55-7a2.72,2.72,0,0,0-.8-.55,5.31,5.31,0,0,0-3.3-.35l-1.65.3a17.12,17.12,0,0,0,1.6-6,40,40,0,0,0-1.5-14.35,33.41,33.41,0,0,0-6.8-12.45,34.68,34.68,0,0,0-11.15-8.7v0l-.95.3a1.31,1.31,0,0,0-.5.3,3.63,3.63,0,0,0-.3.35l-.2.4a2.47,2.47,0,0,0-.1.35,1.23,1.23,0,0,1,0,.35v1.15a1.23,1.23,0,0,1,0,.35l-.1.25-.4-.1a9.21,9.21,0,0,0-5.45,0,2.08,2.08,0,0,0-1,.7,2.27,2.27,0,0,0-.4,1.5,8.13,8.13,0,0,0,1.65,4.85,18.44,18.44,0,0,1,2.1,3.45c.12.27.24.53.35.8q-.36,2.7-.75,5.4a20.61,20.61,0,0,1-3.2,8.35c-.61.91-1.24,1.77-1.9,2.6l-.35.2a3.42,3.42,0,0,1-1.5.5q-3.3-6.4-6-12.95-.69-3.78-1.4-7.55a12.55,12.55,0,0,0,7.5-1.25,1.61,1.61,0,0,0,.45-.3l.1-.35a2.87,2.87,0,0,0,.25-1.15c0-.37,0-.73,0-1.1a3,3,0,0,0-.1-.75c0-.13-.07-.25-.1-.35a2.92,2.92,0,0,0-.25-.4c-.54-.3-1.07-.58-1.6-.85a9.6,9.6,0,0,1-2.15-1.7,9.86,9.86,0,0,0-2.1-1.7l.25-.15.9-.6a13.35,13.35,0,0,0,2.8-2.3c.83-.9,1.66-1.78,2.5-2.65a2.62,2.62,0,0,0,.65-2.7,2.47,2.47,0,0,1-.1-.35,1.48,1.48,0,0,0-1.4-.9c-1.5-.07-3-.1-4.5-.1l-.25,0q.08-.13.15-.3c.19-.27.37-.55.55-.85l.2-.25.4-.5A97.68,97.68,0,0,0,109,100a2.73,2.73,0,0,0,2-2.15,34.72,34.72,0,0,0,.7-9.1c-.07-1.23-.15-2.43-.25-3.6.08-.37.17-.73.25-1.1l.15-.75a1.8,1.8,0,0,0,.1-.4c.16-.67.31-1.34.45-2-.2-1.4-.4-2.78-.6-4.15a74.29,74.29,0,0,0-4.3-16.35v.05a12,12,0,0,0-.5-1.6,15,15,0,0,0,.3-1.6,98.54,98.54,0,0,0-.45-32.6M91.68,6.8q12.6,11.4,12.15,28.7a85.21,85.21,0,0,1-1.55,14,35.1,35.1,0,0,0,0,15.4l.3,1a11.06,11.06,0,0,0,1-.85,8.07,8.07,0,0,0,.75-.8c.09.3.19.58.3.85a5.72,5.72,0,0,0,1.45,2q.49,6.35,1.6,12.6a82.45,82.45,0,0,1,1,8.55c-.12,1.26-.2,2.53-.25,3.8v.4c0,.53-.4.67-1.1.4a2.57,2.57,0,0,0-1.15,0,15.08,15.08,0,0,1-3.75,6.9A44.58,44.58,0,0,1,89.38,109a8.6,8.6,0,0,0,2.35.8,12.53,12.53,0,0,0-2.55,5.1,11.63,11.63,0,0,0-1.55-.1,82.9,82.9,0,0,0-12.45,2.7c-1.15.34-2.31.64-3.5.9l-1,.2q-3,.56-5.9,1.2a13.67,13.67,0,0,0-4.45,1.7c0-.17.07-.34.1-.5.18-1,.32-1.89.4-2.8h.05V118a9.94,9.94,0,0,0,1.5-.45,6,6,0,0,0,1-.45l.1,0a.53.53,0,0,0,.15,0c.27-.17.54-.35.8-.55l.5-.35a17.47,17.47,0,0,0,3.55-3.8l.45-.6a76.85,76.85,0,0,0,8.65-16.5,16.53,16.53,0,0,0,.85-2.9,9.14,9.14,0,0,0,.1-3.1c.4-.2.81-.4,1.25-.6a1.17,1.17,0,0,0,.7-1.35A6.22,6.22,0,0,0,80,86.6a3.48,3.48,0,0,0-1.1-.6,4.19,4.19,0,0,0-1-.1,30.62,30.62,0,0,1-3.4.55A3.54,3.54,0,0,0,72,87.9c0,.12,0,.24,0,.35h0a10.37,10.37,0,0,1,.15,1.1l0,.35a18.91,18.91,0,0,1,0,3.45,12.92,12.92,0,0,1-3.3,7.9q-7.65,8.36-20.75,4.1a5,5,0,0,0-3.35-.05q-13,4.61-18.8-4.85a5.46,5.46,0,0,0-.4,3.5,5.84,5.84,0,0,0,3.15,3.55,13.11,13.11,0,0,0,5.45,1.7l.95,0a12.42,12.42,0,0,0,7-2.4l.2.1a3,3,0,0,0-.6.4c-.74.6-1.5,1.18-2.3,1.75a2.34,2.34,0,0,0-.9,1,13.28,13.28,0,0,0-3,3,19.6,19.6,0,0,0-2.45,4.35l-.45,1c-.08.29-.17.55-.25.8a2.63,2.63,0,0,1-.8-.6l-.2-.2a1.62,1.62,0,0,0,.05-.4c.15-1.2.3-2.42.45-3.65a71.49,71.49,0,0,0-7.9-5.4,29.06,29.06,0,0,1-3.95-2.8.65.65,0,0,0,.1-.15,7.37,7.37,0,0,0-.85-1.45,10,10,0,0,1-.75-1,1.1,1.1,0,0,1-.3.35,12.64,12.64,0,0,1-1.4-1.15c-.24-.3-.48-.62-.7-.95a1.63,1.63,0,0,0-.4-.15,6.17,6.17,0,0,1-1-6.85,5.15,5.15,0,0,0-3.25-2.15c-.14-.13-.15-.52-.05-1.15a1.2,1.2,0,0,1-.65-.4c0-.14,0-.29,0-.45a26.69,26.69,0,0,1,1.25-6,1.4,1.4,0,0,0,.15-.3,6.83,6.83,0,0,0,.3-4.1Q16.47,82.16,23,81.2a9.11,9.11,0,0,0,3.8-1.35,8.06,8.06,0,0,0,2.7-2.8Q34,69.33,31.58,64T19.48,55.5c-.78.17-1.55.37-2.3.6a2.08,2.08,0,0,1-.4.15l-.45.2c0-.1.07-.2.1-.3a1.3,1.3,0,0,0,.15-.2h0a20.63,20.63,0,0,0,1.65-9.05,72.19,72.19,0,0,1,2.6-21.15A40.48,40.48,0,0,1,30.58,8.6a7.83,7.83,0,0,1,1.75.2c.1,0,.18.07.25.2q1.74,3.35,3.5,6.75A94.57,94.57,0,0,1,41.13,27.4a13.83,13.83,0,0,0,2.2,4.15l-.95.2q-3.1.75-3.8,3.25a1.35,1.35,0,0,0,.7,1c.2.13.41.27.65.4a4.76,4.76,0,0,1,.55.55,3.24,3.24,0,0,0-.7.45,7.1,7.1,0,0,0-1.7,1.8c-.24.33-.45.67-.65,1a2.91,2.91,0,0,0-.55,1.6,2.28,2.28,0,0,0,.45,1.55,2.89,2.89,0,0,0,2.65.7,2.24,2.24,0,0,0,1.4-.9,3.51,3.51,0,0,0,.35-.7,1.23,1.23,0,0,0,0-.35,5.07,5.07,0,0,0-.25-.75,1.93,1.93,0,0,0-.35-.35,2,2,0,0,1-.45-.5c0-.07,0-.17.1-.3l.8-.7a9.79,9.79,0,0,1,1.5-1l-.05,0,.65-.3A16,16,0,0,1,48,36.8,1.37,1.37,0,0,0,49.23,35Q47,33.05,50,33.2a20.13,20.13,0,0,0,10.25-2,6.9,6.9,0,0,0,0-.75,2.19,2.19,0,0,0-.25-.7,4.2,4.2,0,0,0-.9-1.2,5.83,5.83,0,0,1-.65-.75c-.14-.23-.27-.48-.4-.75.5-.33,1.43,0,2.8,1.15a15.16,15.16,0,0,0,6.1,2.9,12,12,0,0,0,2.1.2,11.34,11.34,0,0,0,.25,4.4A13.89,13.89,0,0,0,74,29.55q3.3-7.9,7.15-15.6a24.34,24.34,0,0,1,8-9.6C90,5.22,90.81,6,91.68,6.8M15.33,60.15a1,1,0,0,1,.45.1.47.47,0,0,1,.25.25,1.66,1.66,0,0,0,.35.35,2,2,0,0,0,.6.2,2.92,2.92,0,0,0,.5,0,5.09,5.09,0,0,0,.6-.25l.65-.35c.23-.13.48-.27.75-.4a7.5,7.5,0,0,1,5.05,2.1,16.88,16.88,0,0,1,1.35,1.3q5,5.21,2.45,9.45a7.5,7.5,0,0,1-1.15,1.5l-1.35,1.2a17.43,17.43,0,0,1-1.95,1.35,6.86,6.86,0,0,1-7.1.15q-13.26-6.94-1.45-16.9m-4.75,30.4a4.57,4.57,0,0,1-.45-1.2,5.19,5.19,0,0,1-.2-2,22.79,22.79,0,0,1,.65,3.25m53.15,17.6,0-.05A1.05,1.05,0,0,1,64,108a1.82,1.82,0,0,1-.25.2m-5.4,1.4q-2.05,6.86-4.4,13.55a18.4,18.4,0,0,1-1.85,4,7.2,7.2,0,0,1-3,1.5,41.17,41.17,0,0,1-9.25,1.25,28.42,28.42,0,0,1-4.1-2.4,1.76,1.76,0,0,0,.2-.75,18.75,18.75,0,0,1,2.85-9.5,54.11,54.11,0,0,1,7.15-9.2,1.8,1.8,0,0,1,.4.15,9.31,9.31,0,0,0-1.15,1.55,23.27,23.27,0,0,0-2.9,8.4,11.92,11.92,0,0,0,.95,6.7,5.37,5.37,0,0,0,1.5-3.5,16,16,0,0,1,2.75-7.45,26.34,26.34,0,0,0,2.6-4.65,24.92,24.92,0,0,0,8.25.4m-19.25,23.1a17.54,17.54,0,0,0,1.65.65,4.17,4.17,0,0,0,1.35,1.75c.76.63,1.56,1.27,2.4,1.9q1.85,1.4,3.75,2.75c.79.56,1.56,1.14,2.3,1.75a1.21,1.21,0,0,0,.4,1,27.09,27.09,0,0,0,2.4,2.15l.75.6a18.94,18.94,0,0,0,3,1.75,6.94,6.94,0,0,0,.8.35,5,5,0,0,0,1.1.25h1.55a4.86,4.86,0,0,0,.55-.1l.3-.5a23.3,23.3,0,0,1,3.15-3.8l.6-.6q4-3.9,8.1-7.9a52.93,52.93,0,0,1,8.95-7.1A73.42,73.42,0,0,0,89,122.7c.14.8.27,1.57.4,2.3a69.06,69.06,0,0,0,4,13.85q.68,2.67,1.5,5.2c.08.21.14.41.2.6a85.55,85.55,0,0,0,6.1,13.9,137.86,137.86,0,0,0,16.55,23.9q7.5,8.75-6.2,12.55a18.72,18.72,0,0,1-8.7.35q-4.86-.91-9.45-2.1c.2-2.91.26-5.86.2-8.85A79,79,0,0,0,92.13,171q-1.26-6.19-1.85-12a1.61,1.61,0,0,0-.45-.3,1.63,1.63,0,0,0-.7-.25,5.21,5.21,0,0,0-1-.2c-1.8,1.33-2.39,3.43-1.75,6.3a116.32,116.32,0,0,1,2.05,13.1c.34,3.3.54,6.61.6,9.95a21.43,21.43,0,0,1,.25,4.15,49.74,49.74,0,0,1-.4,5.3,1.7,1.7,0,0,1-.45,1.05c-.22,1.21-.48,2.39-.8,3.55l-.5,0a19.78,19.78,0,0,1-.15-2.45,3.17,3.17,0,0,0-1.1-2.6c-.54-.13-.87,0-1,.5a13.8,13.8,0,0,0-.6,3.35c0,.41,0,.81,0,1.2a15.29,15.29,0,0,1-2.9-.55,1,1,0,0,0,0-.25,15.25,15.25,0,0,1,0-2.25,1.6,1.6,0,0,0-1.15-1.75c-.57.07-.89.45-.95,1.15s-.17,1.43-.3,2.15a18,18,0,0,1-3.55-2.35,22.06,22.06,0,0,1-6.65-9.35l-.15-.6q-1.31-4.5-2.85-9.1a22.42,22.42,0,0,1-1.15-9.1q.39-5.59-2.4-8.7v.1l-.5.1a.69.69,0,0,0-.35.2,3.23,3.23,0,0,0-.4.35q-.16.53-.3,1a4.89,4.89,0,0,0-.45-.55,4.14,4.14,0,0,0-1.25,3.4q.15,3.75.25,7.5a30.31,30.31,0,0,0,1.45,8.4,15.1,15.1,0,0,0,.85,2.1s0,.1,0,.15A37.25,37.25,0,0,0,66,194c-1.14,0-2.27,0-3.4-.1q-4-.26-8-.25-2.1.4-4.5.75c-.29,0-.57.09-.85.15h-.05q-.82-.26-1.65-.45l-.15,0c.15-.32.3-.65.45-1,.63-1.25,1.3-2.49,2-3.7.51-.88,1-1.75,1.6-2.6a6.62,6.62,0,0,0,1.35-4.7q1.52-4.26,2.65-8.7a19.63,19.63,0,0,0,.15-11.1,16.27,16.27,0,0,0-.25-2.1,3.36,3.36,0,0,0-1.75,1.65,2.31,2.31,0,0,0-.8,2.4c0,.55.06,1.1.05,1.65a5.92,5.92,0,0,0-.6,1.6q-.9,3.8-1.8,7.65-.51,2.13-1.2,4.2a1.4,1.4,0,0,1-.15.3c-.09.15-.17.3-.25.45a58.25,58.25,0,0,0-3.45,7.3,68,68,0,0,1-3.1,6.6q-1.61,3-2.95,6c-.08-.3-.16-.6-.25-.9a7.27,7.27,0,0,1-.25-2.6,2,2,0,0,0-1.25-2.1c-.47,0-.79.28-1,.85a8.81,8.81,0,0,0-.25,3.4c.06.41.13.81.2,1.2a6.53,6.53,0,0,1-1.35-.4,8.78,8.78,0,0,1,0-1.45c.06-1,.1-2,.1-3a2.09,2.09,0,0,0-1.25-2.1,1.05,1.05,0,0,0-1,1,15.68,15.68,0,0,0-.35,3.35v.6a12.18,12.18,0,0,1-1.5-1.6,31.3,31.3,0,0,1-6.9-19.35,120.7,120.7,0,0,1,1.35-20.7q.82-5.44,1.5-10.8c.09-.76.18-1.53.25-2.3a7.49,7.49,0,0,0,.7-2q1.18-5.73,1.95-11.55c.06-.55.13-1.1.2-1.65s.1-.89.15-1.35l1.35,1.2a6.92,6.92,0,0,0,.85.15A8.85,8.85,0,0,0,34,129.5q.3.31.6.6A15.36,15.36,0,0,0,39,132.7l0,0m10.9,4.1q-1.71-1.33-3.35-2.7a16.76,16.76,0,0,0,6-1.65,11.51,11.51,0,0,0,4.85-4,4.94,4.94,0,0,0,1.75-2.15l.15-.35.2,0q3.54-.9,7-1.9t7.1-2.25A36.62,36.62,0,0,1,86,119.6c-.56.39-1.13.77-1.7,1.15a78.64,78.64,0,0,0-10.5,8.05,92.62,92.62,0,0,0-7,7.1q-2.85,3.21-5.85,6.2l-1.5,1.45a6.41,6.41,0,0,1-1.75-.9l-.3-.2c-.45-.3-.92-.6-1.4-.9l-.9-.5a3.34,3.34,0,0,0-1.2-1.45c-1.3-.93-2.59-1.88-3.85-2.85m-18.3-13.2a1.92,1.92,0,0,1-.55-.75,1.56,1.56,0,0,1,.25-1,.53.53,0,0,0,.05-.15,1.66,1.66,0,0,0,.4.2,13.64,13.64,0,0,0-.15,1.75M18.83,168.7a12.62,12.62,0,0,0,1-1.15c-.08,1.36-.17,2.73-.25,4.1a41.21,41.21,0,0,0,4.1,21.1,11.32,11.32,0,0,0-4.35.6,19.16,19.16,0,0,1-2.75.65.44.44,0,0,1,0,.15,9.16,9.16,0,0,1-7.85-.55,15.37,15.37,0,0,1-4.2-3.2A4.21,4.21,0,0,1,3.38,188a.24.24,0,0,1-.1,0v-.2a1.65,1.65,0,0,1-.25-.15,4.61,4.61,0,0,1,.45-.85,0,0,0,0,1,0,0,1.63,1.63,0,0,0,0-.35,2.54,2.54,0,0,1,.7-.65.12.12,0,0,0,0-.05,8.94,8.94,0,0,1,1.15-.95,9.4,9.4,0,0,0,1.1-.9q2.66-3.5,5.35-7a87.68,87.68,0,0,1,6.95-8.05m100.55-41.65.1-.4a.68.68,0,0,0,.1-.35l.1-.4a1.18,1.18,0,0,1,0-.35v-.75a25,25,0,0,1,7.85,8.7,34.26,34.26,0,0,1,3.8,11.95,29.65,29.65,0,0,1-.4,10,23.88,23.88,0,0,1-3.1,7.6c0,.1.06.22.1.35a2.3,2.3,0,0,0,.2.35,4.39,4.39,0,0,1,.3.45.82.82,0,0,1,.2.35,1.63,1.63,0,0,1-.05.35,4.34,4.34,0,0,1-1,1.5,16.36,16.36,0,0,1-5.85,3.4,18.37,18.37,0,0,1-5.9,1q-3-4.67-6-9.45-2.42-3.9-4.6-7.85a20.47,20.47,0,0,0,5.7-6.95,33.53,33.53,0,0,0,3.2-9.15l.25.15a5.07,5.07,0,0,0,1.1-3A5.67,5.67,0,0,0,115,132c-.34-.77-.65-1.53-1-2.3s-.64-1.58-1-2.35a7.89,7.89,0,0,0-1.4-2.2l1,.4a7.79,7.79,0,0,1,2.5,1.6,3,3,0,0,0,2.5.85,2.4,2.4,0,0,0,1.75-1M99.83,113l-.2.15a8.28,8.28,0,0,1-2.2,1.95,10.39,10.39,0,0,1-3.4,1.25l-.4.05c-.08-.59-.17-1.19-.25-1.8a7.9,7.9,0,0,1,6.45-1.6m-.75,11.75q-2,.12-4.2.15c-.13-.84-.27-1.69-.4-2.55a7.92,7.92,0,0,1,3.8,1.75,5.86,5.86,0,0,0,.6.45Z"/><path class="cls-9" d="M88,0a12.25,12.25,0,0,0-7.55,6.4q-4.56,8.75-9.05,17.5a23.66,23.66,0,0,0-1.65,3.9,25.27,25.27,0,0,1-8.85-2.9A44,44,0,0,0,53,21.5a2.21,2.21,0,0,0-.5.15,1.16,1.16,0,0,0-.7,1.65A10,10,0,0,0,53,25.35c.36.5.75,1,1.15,1.55A21.39,21.39,0,0,0,56,29a22.49,22.49,0,0,1-5,1.15c-1,.13-2.07.3-3.1.5a9,9,0,0,0-1.05-4.2q-3.3-6.56-6.3-13.25a36.22,36.22,0,0,0-6.05-9.35,9,9,0,0,0-1-.15c-1.17-.07-2.34-.1-3.5-.1A27.06,27.06,0,0,0,19.73,15.65a94.12,94.12,0,0,0-7,23.65,38.94,38.94,0,0,0,1.1,18.4,16,16,0,0,0-3,2.3,11.08,11.08,0,0,0-3.75,8.65q.15,6.9,3.6,10.1A4.15,4.15,0,0,0,9.23,81.2q-.36,1.39-.6,2.85c.06.13.13.28.2.45v0q.33.66.6,1.35c-.14,2.17-.37,4.28-.7,6.35a14.05,14.05,0,0,0,.6,7.1,1.59,1.59,0,0,0,1.65.6,1.73,1.73,0,0,0,1.2-.8.88.88,0,0,1,.05.15l.25.5c.16.31.33.61.5.9a1.18,1.18,0,0,1-.05-.35.38.38,0,0,1,0-.15l.85,1.8c.26.57.51,1.13.75,1.7a7,7,0,0,0,2.2,3c.43.77.85,1.57,1.25,2.4.6.47,1.23.92,1.9,1.35q4.55,3,8.45,6.05c-.07,1.63-.22,3.27-.45,4.9A63.69,63.69,0,0,1,25,133a19,19,0,0,0-1.1,7,56.39,56.39,0,0,0-2.1,9.1q-.75,5.35-1.3,10.75l-.15.05a4.66,4.66,0,0,1-.5.25,1.31,1.31,0,0,0-.3.4,71.35,71.35,0,0,1-7.25,9.3A151.63,151.63,0,0,0,1.83,182.7q-3.81,5.2.3,9.65,9,9.59,18.6,6.45a29.74,29.74,0,0,1,3.4.25,20.84,20.84,0,0,0,2.5.15c.4,0,.8,0,1.2,0a17.51,17.51,0,0,0,13.3,5.9,6.08,6.08,0,0,0,1.45-1.6q1.17-1.92,2.25-3.95a57.63,57.63,0,0,1,21.1.65,6.87,6.87,0,0,0,2.6.15,7.61,7.61,0,0,0,.85.25,12,12,0,0,0,2.25.3,18.93,18.93,0,0,0,14.15,5.2,3,3,0,0,0,1.35.25,1.8,1.8,0,0,0,.25-.4,23.92,23.92,0,0,0,4.15-.85,35.8,35.8,0,0,0,1-4q2-.3,4-.75l.15-.05a5.26,5.26,0,0,0,.6.15Q116,204.15,125.63,189a3.09,3.09,0,0,0,0-3.75q-3.66-5.22-7.25-10.6,4.8-.28,10-4.05a50.14,50.14,0,0,1,6.85-4.2q4.8-2.44,4.55-7a2.72,2.72,0,0,0-.8-.55,5.31,5.31,0,0,0-3.3-.35l-1.65.3a17.12,17.12,0,0,0,1.6-6,40,40,0,0,0-1.5-14.35,33.41,33.41,0,0,0-6.8-12.45,34.68,34.68,0,0,0-11.15-8.7v0l-.95.3a1.31,1.31,0,0,0-.5.3,3.63,3.63,0,0,0-.3.35l-.2.4a2.47,2.47,0,0,0-.1.35,1.23,1.23,0,0,1,0,.35v1.15a1.23,1.23,0,0,1,0,.35l-.1.25-.4-.1a9.21,9.21,0,0,0-5.45,0,2.08,2.08,0,0,0-1,.7,2.27,2.27,0,0,0-.4,1.5,8.13,8.13,0,0,0,1.65,4.85,18.44,18.44,0,0,1,2.1,3.45c.12.27.24.53.35.8q-.36,2.7-.75,5.4a20.61,20.61,0,0,1-3.2,8.35c-.61.91-1.24,1.77-1.9,2.6l-.35.2a3.42,3.42,0,0,1-1.5.5q-3.3-6.4-6-12.95-.69-3.78-1.4-7.55a12.55,12.55,0,0,0,7.5-1.25,1.61,1.61,0,0,0,.45-.3l.1-.35a2.87,2.87,0,0,0,.25-1.15c0-.37,0-.73,0-1.1a3,3,0,0,0-.1-.75c0-.13-.07-.25-.1-.35a2.92,2.92,0,0,0-.25-.4c-.54-.3-1.07-.58-1.6-.85a9.6,9.6,0,0,1-2.15-1.7,9.86,9.86,0,0,0-2.1-1.7l.25-.15.9-.6a13.35,13.35,0,0,0,2.8-2.3c.83-.9,1.66-1.78,2.5-2.65a2.62,2.62,0,0,0,.65-2.7,2.47,2.47,0,0,1-.1-.35,1.48,1.48,0,0,0-1.4-.9c-1.5-.07-3-.1-4.5-.1l-.25,0q.08-.13.15-.3c.19-.27.37-.55.55-.85l.2-.25.4-.5A97.68,97.68,0,0,0,109,100a2.73,2.73,0,0,0,2-2.15,34.72,34.72,0,0,0,.7-9.1c-.07-1.23-.15-2.43-.25-3.6.08-.37.17-.73.25-1.1l.15-.75a1.8,1.8,0,0,0,.1-.4c.16-.67.31-1.34.45-2-.2-1.4-.4-2.78-.6-4.15a74.29,74.29,0,0,0-4.3-16.35v.05a12,12,0,0,0-.5-1.6,15,15,0,0,0,.3-1.6,98.54,98.54,0,0,0-.45-32.6Q103.73,7.2,88,0m1.15,4.35C90,5.22,90.81,6,91.68,6.8q12.6,11.4,12.15,28.7a85.21,85.21,0,0,1-1.55,14,35.1,35.1,0,0,0,0,15.4l.3,1a11.06,11.06,0,0,0,1-.85,8.07,8.07,0,0,0,.75-.8c.09.3.19.58.3.85a5.72,5.72,0,0,0,1.45,2q.49,6.35,1.6,12.6a82.45,82.45,0,0,1,1,8.55c-.12,1.26-.2,2.53-.25,3.8v.4c0,.53-.4.67-1.1.4a2.57,2.57,0,0,0-1.15,0,15.08,15.08,0,0,1-3.75,6.9A44.58,44.58,0,0,1,89.38,109a8.6,8.6,0,0,0,2.35.8,12.53,12.53,0,0,0-2.55,5.1,11.63,11.63,0,0,0-1.55-.1,82.9,82.9,0,0,0-12.45,2.7c-1.15.34-2.31.64-3.5.9l-1,.2q-3,.56-5.9,1.2a13.67,13.67,0,0,0-4.45,1.7c0-.17.07-.34.1-.5.18-1,.32-1.89.4-2.8h.05V118a9.94,9.94,0,0,0,1.5-.45,6,6,0,0,0,1-.45l.1,0a.53.53,0,0,0,.15,0c.27-.17.54-.35.8-.55l.5-.35a17.47,17.47,0,0,0,3.55-3.8l.45-.6a76.85,76.85,0,0,0,8.65-16.5,16.53,16.53,0,0,0,.85-2.9,9.14,9.14,0,0,0,.1-3.1c.4-.2.81-.4,1.25-.6a1.17,1.17,0,0,0,.7-1.35A6.22,6.22,0,0,0,80,86.6a3.48,3.48,0,0,0-1.1-.6,4.19,4.19,0,0,0-1-.1,30.62,30.62,0,0,1-3.4.55A3.54,3.54,0,0,0,72,87.9c0,.12,0,.24,0,.35h0a10.37,10.37,0,0,1,.15,1.1l0,.35a18.91,18.91,0,0,1,0,3.45,12.92,12.92,0,0,1-3.3,7.9q-7.65,8.36-20.75,4.1a5,5,0,0,0-3.35-.05q-13,4.61-18.8-4.85a5.46,5.46,0,0,0-.4,3.5,5.84,5.84,0,0,0,3.15,3.55,13.11,13.11,0,0,0,5.45,1.7l.95,0a12.42,12.42,0,0,0,7-2.4l.2.1a3,3,0,0,0-.6.4c-.74.6-1.5,1.18-2.3,1.75a2.34,2.34,0,0,0-.9,1,13.28,13.28,0,0,0-3,3,19.6,19.6,0,0,0-2.45,4.35l-.45,1c-.08.29-.17.55-.25.8a2.63,2.63,0,0,1-.8-.6l-.2-.2a1.62,1.62,0,0,0,.05-.4c.15-1.2.3-2.42.45-3.65a71.49,71.49,0,0,0-7.9-5.4,29.06,29.06,0,0,1-3.95-2.8.65.65,0,0,0,.1-.15,7.37,7.37,0,0,0-.85-1.45,10,10,0,0,1-.75-1,1.1,1.1,0,0,1-.3.35,12.64,12.64,0,0,1-1.4-1.15c-.24-.3-.48-.62-.7-.95a1.63,1.63,0,0,0-.4-.15,6.17,6.17,0,0,1-1-6.85,5.15,5.15,0,0,0-3.25-2.15c-.14-.13-.15-.52-.05-1.15a1.2,1.2,0,0,1-.65-.4c0-.14,0-.29,0-.45a26.69,26.69,0,0,1,1.25-6,1.4,1.4,0,0,0,.15-.3,6.83,6.83,0,0,0,.3-4.1Q16.47,82.16,23,81.2a9.11,9.11,0,0,0,3.8-1.35,8.06,8.06,0,0,0,2.7-2.8Q34,69.33,31.58,64T19.48,55.5c-.78.17-1.55.37-2.3.6a2.08,2.08,0,0,1-.4.15l-.45.2c0-.1.07-.2.1-.3a1.3,1.3,0,0,0,.15-.2h0a20.63,20.63,0,0,0,1.65-9.05,72.19,72.19,0,0,1,2.6-21.15A40.48,40.48,0,0,1,30.58,8.6a7.83,7.83,0,0,1,1.75.2c.1,0,.18.07.25.2q1.74,3.35,3.5,6.75A94.57,94.57,0,0,1,41.13,27.4a13.83,13.83,0,0,0,2.2,4.15l-.95.2q-3.1.75-3.8,3.25a1.35,1.35,0,0,0,.7,1c.2.13.41.27.65.4a4.76,4.76,0,0,1,.55.55,3.24,3.24,0,0,0-.7.45,7.1,7.1,0,0,0-1.7,1.8c-.24.33-.45.67-.65,1a2.91,2.91,0,0,0-.55,1.6,2.28,2.28,0,0,0,.45,1.55,2.89,2.89,0,0,0,2.65.7,2.24,2.24,0,0,0,1.4-.9,3.51,3.51,0,0,0,.35-.7,1.23,1.23,0,0,0,0-.35,5.07,5.07,0,0,0-.25-.75,1.93,1.93,0,0,0-.35-.35,2,2,0,0,1-.45-.5c0-.07,0-.17.1-.3l.8-.7a9.79,9.79,0,0,1,1.5-1l-.05,0,.65-.3A16,16,0,0,1,48,36.8,1.37,1.37,0,0,0,49.23,35Q47,33.05,50,33.2a20.13,20.13,0,0,0,10.25-2,6.9,6.9,0,0,0,0-.75,2.19,2.19,0,0,0-.25-.7,4.2,4.2,0,0,0-.9-1.2,5.83,5.83,0,0,1-.65-.75c-.14-.23-.27-.48-.4-.75.5-.33,1.43,0,2.8,1.15a15.16,15.16,0,0,0,6.1,2.9,12,12,0,0,0,2.1.2,11.34,11.34,0,0,0,.25,4.4A13.89,13.89,0,0,0,74,29.55q3.3-7.9,7.15-15.6a24.34,24.34,0,0,1,8-9.6m-73.8,55.8a1,1,0,0,1,.45.1.47.47,0,0,1,.25.25,1.66,1.66,0,0,0,.35.35,2,2,0,0,0,.6.2,2.92,2.92,0,0,0,.5,0,5.09,5.09,0,0,0,.6-.25l.65-.35c.23-.13.48-.27.75-.4a7.5,7.5,0,0,1,5.05,2.1,16.88,16.88,0,0,1,1.35,1.3q5,5.21,2.45,9.45a7.5,7.5,0,0,1-1.15,1.5l-1.35,1.2a17.43,17.43,0,0,1-1.95,1.35,6.86,6.86,0,0,1-7.1.15q-13.26-6.94-1.45-16.9m-4.75,30.4a4.57,4.57,0,0,1-.45-1.2,5.19,5.19,0,0,1-.2-2,22.79,22.79,0,0,1,.65,3.25m53.15,17.6,0-.05A1.05,1.05,0,0,1,64,108a1.82,1.82,0,0,1-.25.2m-5.4,1.4q-2.05,6.86-4.4,13.55a18.4,18.4,0,0,1-1.85,4,7.2,7.2,0,0,1-3,1.5,41.17,41.17,0,0,1-9.25,1.25,28.42,28.42,0,0,1-4.1-2.4,1.76,1.76,0,0,0,.2-.75,18.75,18.75,0,0,1,2.85-9.5,54.11,54.11,0,0,1,7.15-9.2,1.8,1.8,0,0,1,.4.15,9.31,9.31,0,0,0-1.15,1.55,23.27,23.27,0,0,0-2.9,8.4,11.92,11.92,0,0,0,.95,6.7,5.37,5.37,0,0,0,1.5-3.5,16,16,0,0,1,2.75-7.45,26.34,26.34,0,0,0,2.6-4.65,24.92,24.92,0,0,0,8.25.4m-19.25,23.1a17.54,17.54,0,0,0,1.65.65,4.17,4.17,0,0,0,1.35,1.75c.76.63,1.56,1.27,2.4,1.9q1.85,1.4,3.75,2.75c.79.56,1.56,1.14,2.3,1.75a1.21,1.21,0,0,0,.4,1,27.09,27.09,0,0,0,2.4,2.15l.75.6a18.94,18.94,0,0,0,3,1.75,6.94,6.94,0,0,0,.8.35,5,5,0,0,0,1.1.25h1.55a4.86,4.86,0,0,0,.55-.1l.3-.5a23.3,23.3,0,0,1,3.15-3.8l.6-.6q4-3.9,8.1-7.9a52.93,52.93,0,0,1,8.95-7.1A73.42,73.42,0,0,0,89,122.7c.14.8.27,1.57.4,2.3a69.06,69.06,0,0,0,4,13.85q.68,2.67,1.5,5.2c.08.21.14.41.2.6a85.55,85.55,0,0,0,6.1,13.9,137.86,137.86,0,0,0,16.55,23.9q7.5,8.75-6.2,12.55a18.72,18.72,0,0,1-8.7.35q-4.86-.91-9.45-2.1c.2-2.91.26-5.86.2-8.85A79,79,0,0,0,92.13,171q-1.26-6.19-1.85-12a1.61,1.61,0,0,0-.45-.3,1.63,1.63,0,0,0-.7-.25,5.21,5.21,0,0,0-1-.2c-1.8,1.33-2.39,3.43-1.75,6.3a116.32,116.32,0,0,1,2.05,13.1c.34,3.3.54,6.61.6,9.95a21.43,21.43,0,0,1,.25,4.15,49.74,49.74,0,0,1-.4,5.3,1.7,1.7,0,0,1-.45,1.05c-.22,1.21-.48,2.39-.8,3.55l-.5,0a19.78,19.78,0,0,1-.15-2.45,3.17,3.17,0,0,0-1.1-2.6c-.54-.13-.87,0-1,.5a13.8,13.8,0,0,0-.6,3.35c0,.41,0,.81,0,1.2a15.29,15.29,0,0,1-2.9-.55,1,1,0,0,0,0-.25,15.25,15.25,0,0,1,0-2.25,1.6,1.6,0,0,0-1.15-1.75c-.57.07-.89.45-.95,1.15s-.17,1.43-.3,2.15a18,18,0,0,1-3.55-2.35,22.06,22.06,0,0,1-6.65-9.35l-.15-.6q-1.31-4.5-2.85-9.1a22.42,22.42,0,0,1-1.15-9.1q.39-5.59-2.4-8.7v.1l-.5.1a.69.69,0,0,0-.35.2,3.23,3.23,0,0,0-.4.35q-.16.53-.3,1a4.89,4.89,0,0,0-.45-.55,4.14,4.14,0,0,0-1.25,3.4q.15,3.75.25,7.5a30.31,30.31,0,0,0,1.45,8.4,15.1,15.1,0,0,0,.85,2.1s0,.1,0,.15A37.25,37.25,0,0,0,66,194c-1.14,0-2.27,0-3.4-.1q-4-.26-8-.25-2.1.4-4.5.75c-.29,0-.57.09-.85.15h-.05q-.82-.26-1.65-.45l-.15,0c.15-.32.3-.65.45-1,.63-1.25,1.3-2.49,2-3.7.51-.88,1-1.75,1.6-2.6a6.62,6.62,0,0,0,1.35-4.7q1.52-4.26,2.65-8.7a19.63,19.63,0,0,0,.15-11.1,16.27,16.27,0,0,0-.25-2.1,3.36,3.36,0,0,0-1.75,1.65,2.31,2.31,0,0,0-.8,2.4c0,.55.06,1.1.05,1.65a5.92,5.92,0,0,0-.6,1.6q-.9,3.8-1.8,7.65-.51,2.13-1.2,4.2a1.4,1.4,0,0,1-.15.3c-.09.15-.17.3-.25.45a58.25,58.25,0,0,0-3.45,7.3,68,68,0,0,1-3.1,6.6q-1.61,3-2.95,6c-.08-.3-.16-.6-.25-.9a7.27,7.27,0,0,1-.25-2.6,2,2,0,0,0-1.25-2.1c-.47,0-.79.28-1,.85a8.81,8.81,0,0,0-.25,3.4c.06.41.13.81.2,1.2a6.53,6.53,0,0,1-1.35-.4,8.78,8.78,0,0,1,0-1.45c.06-1,.1-2,.1-3a2.09,2.09,0,0,0-1.25-2.1,1.05,1.05,0,0,0-1,1,15.68,15.68,0,0,0-.35,3.35v.6a12.18,12.18,0,0,1-1.5-1.6,31.3,31.3,0,0,1-6.9-19.35,120.7,120.7,0,0,1,1.35-20.7q.82-5.44,1.5-10.8c.09-.76.18-1.53.25-2.3a7.49,7.49,0,0,0,.7-2q1.18-5.73,1.95-11.55c.06-.55.13-1.1.2-1.65s.1-.89.15-1.35l1.35,1.2a6.92,6.92,0,0,0,.85.15A8.85,8.85,0,0,0,34,129.5q.3.31.6.6A15.36,15.36,0,0,0,39,132.7l0,0m10.9,4.1q-1.71-1.33-3.35-2.7a16.76,16.76,0,0,0,6-1.65,11.51,11.51,0,0,0,4.85-4,4.94,4.94,0,0,0,1.75-2.15l.15-.35.2,0q3.54-.9,7-1.9t7.1-2.25A36.62,36.62,0,0,1,86,119.6c-.56.39-1.13.77-1.7,1.15a78.64,78.64,0,0,0-10.5,8.05,92.62,92.62,0,0,0-7,7.1q-2.85,3.21-5.85,6.2l-1.5,1.45a6.41,6.41,0,0,1-1.75-.9l-.3-.2c-.45-.3-.92-.6-1.4-.9l-.9-.5a3.34,3.34,0,0,0-1.2-1.45c-1.3-.93-2.59-1.88-3.85-2.85m-18.3-13.2a1.92,1.92,0,0,1-.55-.75,1.56,1.56,0,0,1,.25-1,.53.53,0,0,0,.05-.15,1.66,1.66,0,0,0,.4.2,13.64,13.64,0,0,0-.15,1.75M18.83,168.7a12.62,12.62,0,0,0,1-1.15c-.08,1.36-.17,2.73-.25,4.1a41.21,41.21,0,0,0,4.1,21.1,11.32,11.32,0,0,0-4.35.6,19.16,19.16,0,0,1-2.75.65.44.44,0,0,1,0,.15,9.16,9.16,0,0,1-7.85-.55,15.37,15.37,0,0,1-4.2-3.2A4.21,4.21,0,0,1,3.38,188a.24.24,0,0,1-.1,0v-.2a1.65,1.65,0,0,1-.25-.15,4.61,4.61,0,0,1,.45-.85,0,0,0,0,1,0,0,1.63,1.63,0,0,0,0-.35,2.54,2.54,0,0,1,.7-.65.12.12,0,0,0,0-.05,8.94,8.94,0,0,1,1.15-.95,9.4,9.4,0,0,0,1.1-.9q2.66-3.5,5.35-7a87.68,87.68,0,0,1,6.95-8.05m100.55-41.65.1-.4a.68.68,0,0,0,.1-.35l.1-.4a1.18,1.18,0,0,1,0-.35v-.75a25,25,0,0,1,7.85,8.7,34.26,34.26,0,0,1,3.8,11.95,29.65,29.65,0,0,1-.4,10,23.88,23.88,0,0,1-3.1,7.6c0,.1.06.22.1.35a2.3,2.3,0,0,0,.2.35,4.39,4.39,0,0,1,.3.45.82.82,0,0,1,.2.35,1.63,1.63,0,0,1-.05.35,4.34,4.34,0,0,1-1,1.5,16.36,16.36,0,0,1-5.85,3.4,18.37,18.37,0,0,1-5.9,1q-3-4.67-6-9.45-2.42-3.9-4.6-7.85a20.47,20.47,0,0,0,5.7-6.95,33.53,33.53,0,0,0,3.2-9.15l.25.15a5.07,5.07,0,0,0,1.1-3A5.67,5.67,0,0,0,115,132c-.34-.77-.65-1.53-1-2.3s-.64-1.58-1-2.35a7.89,7.89,0,0,0-1.4-2.2l1,.4a7.79,7.79,0,0,1,2.5,1.6,3,3,0,0,0,2.5.85,2.4,2.4,0,0,0,1.75-1M99.83,113l-.2.15a8.28,8.28,0,0,1-2.2,1.95,10.39,10.39,0,0,1-3.4,1.25l-.4.05c-.08-.59-.17-1.19-.25-1.8a7.9,7.9,0,0,1,6.45-1.6m-.75,11.75q-2,.12-4.2.15c-.13-.84-.27-1.69-.4-2.55a7.92,7.92,0,0,1,3.8,1.75,5.86,5.86,0,0,0,.6.45l.2.2M37.48,83c-.7.27-1.52.53-2.45.8q-10.86,2.85-4.2,10.4,10.29,11.7,22.85,1.3a3.48,3.48,0,0,0,1.4-3.5q-2.46-11.9-17.6-9m-2.15,4.7c.66-.13,1.33-.28,2-.45a28.13,28.13,0,0,1,8.7.25,8.63,8.63,0,0,1,5.7,3.25,3.2,3.2,0,0,1-1.15,2.4A11.74,11.74,0,0,1,40,96a10.83,10.83,0,0,1-8-5.85,2.86,2.86,0,0,1,1.1-1.55,4.91,4.91,0,0,1,2.25-.9M19.43,38.25q-.21,3-.45,6a10,10,0,0,0,1.1,5.65,1.16,1.16,0,0,0,1.4-1.15l.15-1.15v-.05a.53.53,0,0,1,.05-.15h-.05c.19-1.53.32-3.08.4-4.65a9.88,9.88,0,0,0-1.3-5.6h-.1c-.74-.07-1.14.3-1.2,1.1m13.7-17c-.3-2-.69-4-1.15-6-.14-.13-.27-.25-.4-.35l-.15-.05a2.28,2.28,0,0,0-.45-.2,1.31,1.31,0,0,0-.5-.1,2.92,2.92,0,0,0-.5-.05,2.29,2.29,0,0,0-1.15.6,14.65,14.65,0,0,0-3.9,5.6,12.36,12.36,0,0,0-.55,1.9,11.59,11.59,0,0,0-.15,3,1.6,1.6,0,0,0,1.05-.3,8.78,8.78,0,0,0,2.15-3.5,7.06,7.06,0,0,1,2.15-3.2,18.76,18.76,0,0,1,.65,2.25,14.57,14.57,0,0,1,.4,3.8c0,.49-.05,1-.1,1.45a12.85,12.85,0,0,1-.2,1.5,1.53,1.53,0,0,1-.4.35l-.4.25a22,22,0,0,0-2.9,2.45A2.13,2.13,0,0,0,26.08,33a.67.67,0,0,0,.3.25,19.57,19.57,0,0,0,3.6,1.4,3.46,3.46,0,0,0-1.05,1,5.93,5.93,0,0,0-1.3,2.8,3.45,3.45,0,0,0,.2,1.85,2.66,2.66,0,0,0,1.85.75,2.76,2.76,0,0,0,1.4-.45,4.24,4.24,0,0,0,1.5-1.65v-.4c0-.23-.07-.48-.1-.75a1.6,1.6,0,0,0-.15-.35,5.07,5.07,0,0,0-.25-.75,7,7,0,0,0,.6-.8c.56-.77,1.15-1.55,1.75-2.35a1.44,1.44,0,0,0,.3-1.35,1.23,1.23,0,0,0-1.25-.8q-3.51.2-1.65-.7A3.51,3.51,0,0,0,33.43,28a33.07,33.07,0,0,0-.3-6.75m53.1,57.3a11.39,11.39,0,0,0,6.3-6.65Q99.33,53.75,81,46.5a18.11,18.11,0,0,0-10.7,4.7,19.68,19.68,0,0,0-2.9,3.4q-7.92,11.9-.25,19.5a21.12,21.12,0,0,0,4.4,3.3q7.39,4.35,14.7,1.15m-5.35-28q8.64,3.34,8.9,12.65.45,17.06-17.5,10.8a4,4,0,0,1-2.45-2.1q-7.26-16.6,11-21.35M99.13,42a1.68,1.68,0,0,0-.35.8,46.46,46.46,0,0,1-1.35,5.5.46.46,0,0,1-.05.1c-.64,2.26-.1,4,1.6,5.15a1.81,1.81,0,0,0,1.5-1.35,31.66,31.66,0,0,0,1.15-5.25,7,7,0,0,0-1.4-5.25,1.23,1.23,0,0,0-1.1.3m-1.6-20.6A18.25,18.25,0,0,0,93.33,15,19.34,19.34,0,0,0,91,13.1a3.3,3.3,0,0,0-2,2,64.51,64.51,0,0,1-3.25,6.8c-1.24,2.33-2.32,4.62-3.25,6.85q2.85,1.65-.5,1.5a1.23,1.23,0,0,0-1.25.75l-.1.4a5.27,5.27,0,0,0,.05,2,5.44,5.44,0,0,1,0,1.4,2.61,2.61,0,0,0,0,1.15l1,.9a7.87,7.87,0,0,0,1.2.85v0a6.3,6.3,0,0,0,.8.45,4.23,4.23,0,0,0,2.15.5A2.13,2.13,0,0,0,87.73,37a1.37,1.37,0,0,0,0-.85h0a2,2,0,0,0-.45-.55c-.44-.33-.89-.67-1.35-1a4.79,4.79,0,0,1-1.05-1.1c.4-.4,1.58-.8,3.55-1.2a1.06,1.06,0,0,0,.8-1,1.69,1.69,0,0,0-.7-1.6,13.42,13.42,0,0,0-1.65-1,4.29,4.29,0,0,1-.75-.6h0l-.4-.4.35-.2.25-.1A5.68,5.68,0,0,0,88.48,25a26.88,26.88,0,0,0,1.6-4.05,14.36,14.36,0,0,1,1.3-3,4.66,4.66,0,0,1,.35-.6l.6,1.2c.36.69.74,1.36,1.15,2a16.06,16.06,0,0,1,2.45,8.45c.06,3,1,5,2.9,6a4.22,4.22,0,0,0,.65.3,3.75,3.75,0,0,0,1.1-3.45A64.26,64.26,0,0,0,97.53,21.35Z"/></g></g></svg>